<svg width="120" height="18" viewBox="0 0 120 18" fill="none" xmlns="http://www.w3.org/2000/svg">
<path d="M8.72254 13.7646L12.3484 16.0592C13.0125 16.4798 13.825 15.8581 13.6503 15.0719L12.6892 10.7568L15.8957 7.84964C16.4811 7.3194 16.1666 6.31377 15.3977 6.24977L11.1777 5.87495L9.52635 1.79757C9.22929 1.05706 8.21579 1.05706 7.91872 1.79757L6.26741 5.8658L2.04737 6.24063C1.27851 6.30462 0.963969 7.31026 1.54936 7.8405L4.75588 10.7477L3.7948 15.0628C3.62006 15.849 4.43261 16.4706 5.09663 16.0501L8.72254 13.7646Z" fill="#ED5A25"/>
<path d="M34.1666 13.7646L37.7925 16.0592C38.4565 16.4798 39.2691 15.8581 39.0943 15.0719L38.1332 10.7568L41.3398 7.84964C41.9251 7.3194 41.6106 6.31377 40.8417 6.24977L36.6217 5.87495L34.9704 1.79757C34.6733 1.05706 33.6598 1.05706 33.3628 1.79757L31.7114 5.8658L27.4914 6.24063C26.7225 6.30462 26.408 7.31026 26.9934 7.8405L30.1999 10.7477L29.2388 15.0628C29.0641 15.849 29.8766 16.4706 30.5407 16.0501L34.1666 13.7646Z" fill="#ED5A25"/>
<path d="M59.612 13.7646L63.2379 16.0592C63.9019 16.4798 64.7145 15.8581 64.5397 15.0719L63.5787 10.7568L66.7852 7.84964C67.3706 7.3194 67.056 6.31377 66.2872 6.24977L62.0671 5.87495L60.4158 1.79757C60.1188 1.05706 59.1053 1.05706 58.8082 1.79757L57.1569 5.8658L52.9368 6.24063C52.168 6.30462 51.8534 7.31026 52.4388 7.8405L55.6453 10.7477L54.6843 15.0628C54.5095 15.849 55.3221 16.4706 55.9861 16.0501L59.612 13.7646Z" fill="#ED5A25"/>
<path d="M85.056 13.7646L88.6819 16.0592C89.346 16.4798 90.1585 15.8581 89.9838 15.0719L89.0227 10.7568L92.2292 7.84964C92.8146 7.3194 92.5001 6.31377 91.7312 6.24977L87.5112 5.87495L85.8599 1.79757C85.5628 1.05706 84.5493 1.05706 84.2522 1.79757L82.6009 5.8658L78.3809 6.24063C77.612 6.30462 77.2975 7.31026 77.8829 7.8405L81.0894 10.7477L80.1283 15.0628C79.9536 15.849 80.7661 16.4706 81.4301 16.0501L85.056 13.7646Z" fill="#ED5A25"/>
<path d="M110.5 13.7646L114.126 16.0592C114.79 16.4798 115.603 15.8581 115.428 15.0719L114.467 10.7568L117.674 7.84964C118.259 7.3194 117.944 6.31377 117.176 6.24977L112.956 5.87495L111.304 1.79757C111.007 1.05706 109.994 1.05706 109.697 1.79757L108.045 5.8658L103.825 6.24063C103.056 6.30462 102.742 7.31026 103.327 7.8405L106.534 10.7477L105.573 15.0628C105.398 15.849 106.21 16.4706 106.874 16.0501L110.5 13.7646Z" fill="#ED5A25"/>
</svg>
