<svg width="12" height="12" viewBox="0 0 12 12" fill="none" xmlns="http://www.w3.org/2000/svg">
<path d="M8.55509 7.37248C8.13096 7.37248 7.72061 7.30352 7.33785 7.17938C7.27787 7.15918 7.21343 7.15622 7.15186 7.17085C7.09028 7.18549 7.03405 7.21711 6.98958 7.26214L6.4482 7.94145C5.47233 7.47593 4.55854 6.59662 4.07233 5.58627L4.74475 5.01386C4.83785 4.91731 4.86544 4.78283 4.82751 4.66214C4.69992 4.27938 4.6344 3.86903 4.6344 3.44489C4.6344 3.25869 4.47923 3.10352 4.29302 3.10352H3.09992C2.91371 3.10352 2.68958 3.18627 2.68958 3.44489C2.68958 6.64834 5.35509 9.31041 8.55509 9.31041C8.79992 9.31041 8.89647 9.09317 8.89647 8.90352V7.71386C8.89647 7.52765 8.7413 7.37248 8.55509 7.37248Z" fill="white"/>
<circle cx="6" cy="6" r="5.47429" stroke="white" stroke-width="1.05143"/>
</svg>
