<svg width="14" height="14" viewBox="0 0 14 14" fill="none" xmlns="http://www.w3.org/2000/svg">
<path d="M2.33366 2.33341H4.08366L5.25033 1.16675H8.75033L9.91699 2.33341H11.667C11.9764 2.33341 12.2732 2.45633 12.4919 2.67512C12.7107 2.89392 12.8337 3.19066 12.8337 3.50008V10.5001C12.8337 10.8095 12.7107 11.1062 12.4919 11.325C12.2732 11.5438 11.9764 11.6667 11.667 11.6667H2.33366C2.02424 11.6667 1.72749 11.5438 1.5087 11.325C1.28991 11.1062 1.16699 10.8095 1.16699 10.5001V3.50008C1.16699 3.19066 1.28991 2.89392 1.5087 2.67512C1.72749 2.45633 2.02424 2.33341 2.33366 2.33341ZM7.00033 4.08341C6.22678 4.08341 5.48491 4.39071 4.93793 4.93769C4.39095 5.48467 4.08366 6.22653 4.08366 7.00008C4.08366 7.77363 4.39095 8.51549 4.93793 9.06248C5.48491 9.60946 6.22678 9.91675 7.00033 9.91675C7.77387 9.91675 8.51574 9.60946 9.06272 9.06248C9.6097 8.51549 9.91699 7.77363 9.91699 7.00008C9.91699 6.22653 9.6097 5.48467 9.06272 4.93769C8.51574 4.39071 7.77387 4.08341 7.00033 4.08341ZM7.00033 5.25008C7.46445 5.25008 7.90957 5.43446 8.23776 5.76264C8.56595 6.09083 8.75033 6.53595 8.75033 7.00008C8.75033 7.46421 8.56595 7.90933 8.23776 8.23752C7.90957 8.56571 7.46445 8.75008 7.00033 8.75008C6.5362 8.75008 6.09108 8.56571 5.76289 8.23752C5.4347 7.90933 5.25033 7.46421 5.25033 7.00008C5.25033 6.53595 5.4347 6.09083 5.76289 5.76264C6.09108 5.43446 6.5362 5.25008 7.00033 5.25008Z" fill="white"/>
</svg>
