<svg width="133" height="35" viewBox="0 0 133 35" fill="none" xmlns="http://www.w3.org/2000/svg">
<path d="M19.7914 26H15.2576L4.99189 10.4881V26H0.458129V3.36358H4.99189L15.2576 18.9079V3.36358H19.7914V26ZM23.1059 16.9649C23.1059 15.1514 23.4622 13.543 24.1746 12.1396C24.9086 10.7363 25.891 9.65687 27.1215 8.90125C28.3737 8.14562 29.7662 7.76781 31.2991 7.76781C32.6376 7.76781 33.8034 8.03767 34.7966 8.57741C35.8113 9.11714 36.6209 9.79721 37.2254 10.6176V8.05926H41.7915V26H37.2254V23.3769C36.6424 24.2189 35.8328 24.9205 34.7966 25.4819C33.7819 26.0216 32.6052 26.2915 31.2667 26.2915C29.7554 26.2915 28.3737 25.9028 27.1215 25.1256C25.891 24.3484 24.9086 23.2582 24.1746 21.8548C23.4622 20.43 23.1059 18.8 23.1059 16.9649ZM37.2254 17.0296C37.2254 15.9286 37.0095 14.9894 36.5777 14.2122C36.1459 13.4134 35.563 12.8089 34.8289 12.3987C34.0949 11.9669 33.3069 11.751 32.4649 11.751C31.6229 11.751 30.8457 11.9561 30.1333 12.3663C29.4208 12.7765 28.8379 13.381 28.3845 14.1798C27.9527 14.9571 27.7368 15.8854 27.7368 16.9649C27.7368 18.0443 27.9527 18.9943 28.3845 19.8147C28.8379 20.6135 29.4208 21.2288 30.1333 21.6605C30.8673 22.0923 31.6445 22.3082 32.4649 22.3082C33.3069 22.3082 34.0949 22.1031 34.8289 21.6929C35.563 21.2611 36.1459 20.6566 36.5777 19.8794C37.0095 19.0806 37.2254 18.1307 37.2254 17.0296ZM50.7533 10.65C51.3362 9.82959 52.135 9.14953 53.1497 8.60979C54.186 8.04847 55.3626 7.76781 56.6795 7.76781C58.2124 7.76781 59.5941 8.14562 60.8247 8.90125C62.0769 9.65687 63.0592 10.7363 63.7716 12.1396C64.5057 13.5214 64.8727 15.1298 64.8727 16.9649C64.8727 18.8 64.5057 20.43 63.7716 21.8548C63.0592 23.2582 62.0769 24.3484 60.8247 25.1256C59.5941 25.9028 58.2124 26.2915 56.6795 26.2915C55.3626 26.2915 54.1968 26.0216 53.1821 25.4819C52.189 24.9421 51.3794 24.2621 50.7533 23.4417V34.5494H46.2195V8.05926H50.7533V10.65ZM60.2418 16.9649C60.2418 15.8854 60.0151 14.9571 59.5617 14.1798C59.1299 13.381 58.547 12.7765 57.813 12.3663C57.1005 11.9561 56.3233 11.751 55.4813 11.751C54.6609 11.751 53.8837 11.9669 53.1497 12.3987C52.4372 12.8089 51.8543 13.4134 51.4009 14.2122C50.9692 15.011 50.7533 15.9502 50.7533 17.0296C50.7533 18.1091 50.9692 19.0482 51.4009 19.847C51.8543 20.6458 52.4372 21.2611 53.1497 21.6929C53.8837 22.1031 54.6609 22.3082 55.4813 22.3082C56.3233 22.3082 57.1005 22.0923 57.813 21.6605C58.547 21.2288 59.1299 20.6135 59.5617 19.8147C60.0151 19.0159 60.2418 18.0659 60.2418 16.9649ZM83.5497 3.39597V7.05536H77.5262V26H72.9925V7.05536H66.969V3.39597H83.5497ZM89.1569 5.92192C88.3581 5.92192 87.6888 5.67364 87.1491 5.17709C86.6309 4.65894 86.3719 4.02206 86.3719 3.26643C86.3719 2.5108 86.6309 1.88471 87.1491 1.38816C87.6888 0.870015 88.3581 0.610944 89.1569 0.610944C89.9557 0.610944 90.6142 0.870015 91.1323 1.38816C91.672 1.88471 91.9419 2.5108 91.9419 3.26643C91.9419 4.02206 91.672 4.65894 91.1323 5.17709C90.6142 5.67364 89.9557 5.92192 89.1569 5.92192ZM91.3914 8.05926V26H86.8576V8.05926H91.3914ZM112.549 16.641C112.549 17.2887 112.505 17.8716 112.419 18.3898H99.3035C99.4114 19.6851 99.8648 20.6998 100.664 21.4339C101.462 22.1679 102.445 22.5349 103.611 22.5349C105.294 22.5349 106.493 21.8117 107.205 20.3652H112.095C111.577 22.0923 110.584 23.5172 109.116 24.6399C107.648 25.7409 105.845 26.2915 103.708 26.2915C101.981 26.2915 100.426 25.9136 99.0444 25.158C97.6843 24.3808 96.6156 23.2905 95.8384 21.8872C95.0827 20.4839 94.7049 18.8647 94.7049 17.0296C94.7049 15.1729 95.0827 13.543 95.8384 12.1396C96.594 10.7363 97.6519 9.65687 99.012 8.90125C100.372 8.14562 101.937 7.76781 103.708 7.76781C105.413 7.76781 106.935 8.13483 108.274 8.86886C109.634 9.6029 110.681 10.65 111.415 12.0101C112.171 13.3487 112.549 14.8923 112.549 16.641ZM107.853 15.3457C107.831 14.1798 107.41 13.2515 106.59 12.5606C105.769 11.8482 104.766 11.492 103.578 11.492C102.455 11.492 101.506 11.8374 100.728 12.5283C99.9727 13.1975 99.5086 14.1367 99.3358 15.3457H107.853ZM125.8 7.80019C127.937 7.80019 129.664 8.48026 130.981 9.84038C132.298 11.1789 132.957 13.0572 132.957 15.4752V26H128.423V16.0905C128.423 14.6656 128.067 13.5753 127.354 12.8197C126.642 12.0425 125.67 11.6539 124.44 11.6539C123.187 11.6539 122.194 12.0425 121.46 12.8197C120.748 13.5753 120.392 14.6656 120.392 16.0905V26H115.858V8.05926H120.392V10.2938C120.996 9.51654 121.762 8.91204 122.691 8.48026C123.641 8.02688 124.677 7.80019 125.8 7.80019Z" fill="white"/>
</svg>
