<svg width="12" height="13" viewBox="0 0 12 13" fill="none" xmlns="http://www.w3.org/2000/svg">
<rect y="0.5" width="12" height="12" rx="6" fill="#FFCEBC"/>
<path d="M9.24798 5.85435L4.92998 10.2944C4.80998 10.4174 4.61099 10.2749 4.68899 10.1219L6.22598 7.08885C6.23763 7.06596 6.2432 7.04047 6.24216 7.01481C6.24113 6.98915 6.23352 6.96418 6.22007 6.9423C6.20662 6.92042 6.18778 6.90236 6.16536 6.88985C6.14293 6.87734 6.11767 6.8708 6.09198 6.87085H2.85899C2.82946 6.87083 2.80059 6.86209 2.77601 6.84573C2.75142 6.82937 2.73222 6.80612 2.72079 6.77889C2.70936 6.75166 2.70623 6.72167 2.71178 6.69266C2.71733 6.66366 2.73131 6.63694 2.75199 6.61585L6.75698 2.55835C6.87298 2.44085 7.06599 2.56985 7.00148 2.72235L5.85299 5.42985C5.84326 5.45281 5.83941 5.47782 5.84178 5.50264C5.84416 5.52745 5.85267 5.55129 5.86657 5.57198C5.88047 5.59268 5.8993 5.60958 5.92138 5.62117C5.94345 5.63276 5.96806 5.63866 5.99299 5.63835L9.13848 5.59935C9.16817 5.59888 9.19733 5.60722 9.22227 5.62332C9.2472 5.63943 9.26681 5.66257 9.27858 5.68982C9.29036 5.71707 9.29379 5.7472 9.28843 5.7764C9.28307 5.8056 9.26917 5.83256 9.24848 5.85385" fill="#ED5A25"/>
</svg>
