<svg width="7" height="12" viewBox="0 0 7 12" fill="none" xmlns="http://www.w3.org/2000/svg">
<path d="M6.88793 5.97262C6.88859 6.08587 6.86688 6.19814 6.82405 6.30299C6.78123 6.40784 6.71813 6.5032 6.63837 6.58361L1.47506 11.7469C1.31302 11.909 1.09324 12 0.864073 12C0.634906 12 0.415126 11.909 0.253081 11.7469C0.091036 11.5849 -2.77526e-08 11.3651 -3.77698e-08 11.1359C-4.7787e-08 10.9068 0.0910359 10.687 0.253081 10.5249L4.814 5.97262L0.261686 1.4203C0.120705 1.25568 0.0470364 1.04392 0.055402 0.827337C0.0637675 0.610757 0.153551 0.405309 0.306811 0.252049C0.46007 0.0987901 0.665517 0.00900742 0.882098 0.000642738C1.09868 -0.0077229 1.31044 0.0659437 1.47506 0.206925L6.63837 5.37023C6.79735 5.53052 6.88698 5.74686 6.88793 5.97262Z" fill="#969696"/>
</svg>
