<svg width="63" height="63" viewBox="0 0 63 63" fill="none" xmlns="http://www.w3.org/2000/svg">
<path d="M55.125 17.7185H48.4706L41.1469 3.05133C40.8909 2.55914 40.4578 2.18508 39.9263 2.04727C39.3947 1.88977 38.8237 1.96852 38.3512 2.26383L34.1578 4.84289L33.2719 3.07102C33.0159 2.55914 32.5631 2.18508 32.0119 2.04727C31.4606 1.90946 30.8897 2.00789 30.4172 2.30321L7.28438 17.7185H3.9375C2.85469 17.7185 1.96875 18.6045 1.96875 19.6873V59.0623C1.96875 60.1451 2.85469 61.031 3.9375 61.031H55.125C58.3734 61.031 61.0312 58.3732 61.0312 55.1248V23.6248C61.0312 20.3763 58.3734 17.7185 55.125 17.7185ZM38.5678 6.73289L44.0606 17.7185H40.5956L35.9297 8.36695L38.5678 6.73289ZM30.7322 6.81164L36.1856 17.7185H14.3719L30.7322 6.81164ZM5.90625 57.0935V21.656H47.25C48.3328 21.656 49.2188 22.542 49.2188 23.6248V31.4998H43.3125C40.0641 31.4998 37.4062 34.1576 37.4062 37.406V41.3435C37.4062 44.5919 40.0641 47.2498 43.3125 47.2498H49.2188V55.1248C49.2188 56.2076 48.3328 57.0935 47.25 57.0935H5.90625ZM43.3125 43.3123C42.2297 43.3123 41.3438 42.4263 41.3438 41.3435V37.406C41.3438 36.3232 42.2297 35.4373 43.3125 35.4373H57.0938V43.3123H43.3125ZM57.0938 55.1248C57.0938 56.2076 56.2078 57.0935 55.125 57.0935H52.8019C53.0184 56.4832 53.1562 55.8138 53.1562 55.1248V47.2498H57.0938V55.1248ZM53.1562 31.4998V23.6248C53.1562 22.9357 53.0184 22.2663 52.8019 21.656H55.125C56.2078 21.656 57.0938 22.542 57.0938 23.6248V31.4998H53.1562ZM47.25 39.3748C47.25 40.4576 46.3641 41.3435 45.2812 41.3435C44.1984 41.3435 43.3125 40.4576 43.3125 39.3748C43.3125 38.2919 44.1984 37.406 45.2812 37.406C46.3641 37.406 47.25 38.2919 47.25 39.3748Z" fill="#ED5A25"/>
</svg>
