<svg width="145" height="35" viewBox="0 0 145 35" fill="none" xmlns="http://www.w3.org/2000/svg">
<path d="M33.6646 17.1009C33.6646 19.3113 33.2293 21.5001 32.3834 23.5423C31.5375 25.5845 30.2976 27.4401 28.7346 29.0031C27.1716 30.5662 25.316 31.806 23.2738 32.6519C21.2316 33.4978 19.0428 33.9332 16.8323 33.9332C14.6219 33.9332 12.4331 33.4978 10.3909 32.6519C8.34868 31.806 6.4931 30.5662 4.93007 29.0031C3.36705 27.4401 2.12719 25.5845 1.28128 23.5423C0.435381 21.5001 -1.93244e-07 19.3113 0 17.1009L16.8323 17.1009H33.6646Z" fill="#323232"/>
<path d="M-9.77106e-05 17.1013C-9.75174e-05 14.8908 0.435286 12.702 1.28119 10.6598C2.12709 8.61762 3.36695 6.76204 4.92998 5.19901C6.493 3.63599 8.34859 2.39613 10.3908 1.55023C12.433 0.704321 14.6218 0.268942 16.8322 0.268942C19.0427 0.268943 21.2315 0.704326 23.2737 1.55023C25.3159 2.39613 27.1715 3.63599 28.7345 5.19902C30.2975 6.76204 31.5374 8.61763 32.3833 10.6598C33.2292 12.702 33.6646 14.8908 33.6646 17.1013L16.8322 17.1013L-9.77106e-05 17.1013Z" fill="#ED5A25"/>
<path d="M46.1324 16.8527C46.1324 15.2346 46.4937 13.7893 47.2164 12.5167C47.9548 11.2285 48.9524 10.2309 50.2092 9.52395C51.4817 8.80128 52.9035 8.43995 54.4745 8.43995C56.3126 8.43995 57.9229 8.91126 59.3054 9.85387C60.6879 10.7965 61.654 12.1004 62.2039 13.7657H58.4099C58.0329 12.9802 57.4987 12.3911 56.8075 11.9983C56.1319 11.6055 55.3464 11.4092 54.4509 11.4092C53.4926 11.4092 52.6364 11.637 51.8823 12.0926C51.1439 12.5324 50.5627 13.1609 50.1385 13.9778C49.73 14.7947 49.5258 15.753 49.5258 16.8527C49.5258 17.9367 49.73 18.8951 50.1385 19.7277C50.5627 20.5446 51.1439 21.1809 51.8823 21.6365C52.6364 22.0764 53.4926 22.2963 54.4509 22.2963C55.3464 22.2963 56.1319 22.0999 56.8075 21.7072C57.4987 21.2987 58.0329 20.7017 58.4099 19.9162H62.2039C61.654 21.5972 60.6879 22.909 59.3054 23.8516C57.9386 24.7785 56.3283 25.242 54.4745 25.242C52.9035 25.242 51.4817 24.8885 50.2092 24.1815C48.9524 23.4589 47.9548 22.4613 47.2164 21.1888C46.4937 19.9162 46.1324 18.4709 46.1324 16.8527ZM64.1734 18.5259C64.1734 17.2062 64.4327 16.0358 64.9511 15.0147C65.4852 13.9935 66.2001 13.208 67.0955 12.6581C68.0067 12.1083 69.02 11.8333 70.1355 11.8333C71.1095 11.8333 71.9578 12.0297 72.6805 12.4225C73.4189 12.8152 74.008 13.3101 74.4479 13.9071V12.0454H77.7706V25.1006H74.4479V23.1918C74.0237 23.8045 73.4346 24.3151 72.6805 24.7235C71.9421 25.1163 71.0859 25.3127 70.1119 25.3127C69.0122 25.3127 68.0067 25.0299 67.0955 24.4643C66.2001 23.8988 65.4852 23.1054 64.9511 22.0842C64.4327 21.0474 64.1734 19.8612 64.1734 18.5259ZM74.4479 18.573C74.4479 17.7718 74.2908 17.0884 73.9766 16.5228C73.6624 15.9416 73.2382 15.5017 72.7041 15.2032C72.1699 14.889 71.5965 14.7319 70.9838 14.7319C70.3711 14.7319 69.8055 14.8811 69.2871 15.1796C68.7687 15.4781 68.3445 15.918 68.0146 16.4993C67.7004 17.0648 67.5433 17.7404 67.5433 18.5259C67.5433 19.3114 67.7004 20.0026 68.0146 20.5996C68.3445 21.1809 68.7687 21.6286 69.2871 21.9428C69.8212 22.257 70.3868 22.4141 70.9838 22.4141C71.5965 22.4141 72.1699 22.2649 72.7041 21.9664C73.2382 21.6522 73.6624 21.2123 73.9766 20.6468C74.2908 20.0655 74.4479 19.3742 74.4479 18.573ZM84.2919 14.072C84.7161 13.3808 85.2659 12.8388 85.9415 12.446C86.6327 12.0533 87.4182 11.8569 88.298 11.8569V15.321H87.4261C86.3892 15.321 85.6037 15.5645 85.0696 16.0515C84.5511 16.5385 84.2919 17.3869 84.2919 18.5966V25.1006H80.9928V12.0454H84.2919V14.072ZM89.6718 18.5259C89.6718 17.2062 89.931 16.0358 90.4494 15.0147C90.9836 13.9935 91.7063 13.208 92.6174 12.6581C93.5286 12.1083 94.5419 11.8333 95.6574 11.8333C96.5057 11.8333 97.3148 12.0219 98.0846 12.3989C98.8544 12.7602 99.4671 13.2473 99.9227 13.86V7.6623H103.269V25.1006H99.9227V23.1682C99.5142 23.8124 98.9408 24.3308 98.2024 24.7235C97.464 25.1163 96.6078 25.3127 95.6338 25.3127C94.5341 25.3127 93.5286 25.0299 92.6174 24.4643C91.7063 23.8988 90.9836 23.1054 90.4494 22.0842C89.931 21.0474 89.6718 19.8612 89.6718 18.5259ZM99.9462 18.573C99.9462 17.7718 99.7891 17.0884 99.4749 16.5228C99.1607 15.9416 98.7366 15.5017 98.2024 15.2032C97.6683 14.889 97.0948 14.7319 96.4821 14.7319C95.8694 14.7319 95.3039 14.8811 94.7854 15.1796C94.267 15.4781 93.8428 15.918 93.5129 16.4993C93.1987 17.0648 93.0416 17.7404 93.0416 18.5259C93.0416 19.3114 93.1987 20.0026 93.5129 20.5996C93.8428 21.1809 94.267 21.6286 94.7854 21.9428C95.3196 22.257 95.8852 22.4141 96.4821 22.4141C97.0948 22.4141 97.6683 22.2649 98.2024 21.9664C98.7366 21.6522 99.1607 21.2123 99.4749 20.6468C99.7891 20.0655 99.9462 19.3742 99.9462 18.573Z" fill="#404040"/>
<path d="M110.332 14.7554V21.0709C110.332 21.5108 110.434 21.8329 110.639 22.0371C110.859 22.2256 111.22 22.3199 111.723 22.3199H113.254V25.1006H111.181C108.4 25.1006 107.01 23.7495 107.01 21.0474V14.7554H105.454V12.0454H107.01V8.81699H110.332V12.0454H113.254V14.7554H110.332ZM121.424 25.3127C120.167 25.3127 119.036 25.0377 118.031 24.4879C117.025 23.9223 116.232 23.129 115.651 22.1078C115.085 21.0866 114.802 19.9084 114.802 18.573C114.802 17.2376 115.093 16.0594 115.674 15.0382C116.271 14.0171 117.08 13.2316 118.102 12.6817C119.123 12.1161 120.262 11.8333 121.519 11.8333C122.775 11.8333 123.914 12.1161 124.936 12.6817C125.957 13.2316 126.758 14.0171 127.339 15.0382C127.936 16.0594 128.235 17.2376 128.235 18.573C128.235 19.9084 127.928 21.0866 127.316 22.1078C126.719 23.129 125.902 23.9223 124.865 24.4879C123.844 25.0377 122.697 25.3127 121.424 25.3127ZM121.424 22.4377C122.021 22.4377 122.579 22.2963 123.097 22.0135C123.632 21.715 124.056 21.2752 124.37 20.6939C124.684 20.1126 124.841 19.4056 124.841 18.573C124.841 17.3319 124.511 16.3814 123.852 15.7216C123.207 15.0461 122.414 14.7083 121.471 14.7083C120.529 14.7083 119.735 15.0461 119.091 15.7216C118.463 16.3814 118.149 17.3319 118.149 18.573C118.149 19.8141 118.455 20.7724 119.068 21.448C119.696 22.1078 120.482 22.4377 121.424 22.4377ZM133.954 13.9542C134.378 13.3258 134.959 12.8152 135.698 12.4225C136.452 12.0297 137.308 11.8333 138.266 11.8333C139.382 11.8333 140.387 12.1083 141.283 12.6581C142.194 13.208 142.909 13.9935 143.427 15.0147C143.961 16.0201 144.228 17.1905 144.228 18.5259C144.228 19.8612 143.961 21.0474 143.427 22.0842C142.909 23.1054 142.194 23.8988 141.283 24.4643C140.387 25.0299 139.382 25.3127 138.266 25.3127C137.292 25.3127 136.436 25.1242 135.698 24.7471C134.975 24.3544 134.394 23.8516 133.954 23.2389V25.1006H130.655V7.6623H133.954V13.9542ZM140.858 18.5259C140.858 17.7404 140.694 17.0648 140.364 16.4993C140.049 15.918 139.625 15.4781 139.091 15.1796C138.573 14.8811 138.007 14.7319 137.394 14.7319C136.797 14.7319 136.232 14.889 135.698 15.2032C135.179 15.5017 134.755 15.9416 134.425 16.5228C134.111 17.1041 133.954 17.7875 133.954 18.573C133.954 19.3585 134.111 20.0419 134.425 20.6232C134.755 21.2045 135.179 21.6522 135.698 21.9664C136.232 22.2649 136.797 22.4141 137.394 22.4141C138.007 22.4141 138.573 22.257 139.091 21.9428C139.625 21.6286 140.049 21.1809 140.364 20.5996C140.694 20.0183 140.858 19.3271 140.858 18.5259Z" fill="#ED5A25"/>
</svg>
