<svg width="48" height="47" viewBox="0 0 48 47" fill="none" xmlns="http://www.w3.org/2000/svg">
<path d="M47.2238 23.5001C47.2238 26.5377 46.6255 29.5457 45.463 32.3521C44.3006 35.1585 42.5967 37.7085 40.4488 39.8565C38.3008 42.0044 35.7508 43.7083 32.9444 44.8707C30.1379 46.0332 27.13 46.6315 24.0924 46.6315C21.0547 46.6315 18.0468 46.0332 15.2403 44.8707C12.4339 43.7083 9.88393 42.0044 7.73597 39.8565C5.58802 37.7085 3.88417 35.1585 2.72171 32.3521C1.55925 29.5457 0.960937 26.5377 0.960938 23.5001L24.0924 23.5001H47.2238Z" fill="#323232"/>
<path d="M0.960779 23.4999C0.96078 20.4623 1.55909 17.4543 2.72156 14.6479C3.88402 11.8415 5.58787 9.29148 7.73582 7.14353C9.88377 4.99558 12.4338 3.29173 15.2402 2.12927C18.0466 0.966802 21.0545 0.36849 24.0922 0.36849C27.1299 0.36849 30.1378 0.966803 32.9442 2.12927C35.7507 3.29173 38.3006 4.99558 40.4486 7.14353C42.5966 9.29148 44.3004 11.8415 45.4629 14.6479C46.6253 17.4543 47.2236 20.4623 47.2236 23.4999L24.0922 23.4999L0.960779 23.4999Z" fill="white"/>
</svg>
