<svg width="16" height="16" viewBox="0 0 16 16" fill="none" xmlns="http://www.w3.org/2000/svg">
<path d="M7.33301 11.3333H8.66634V7.33334H7.33301V11.3333ZM7.99968 6C8.18856 6 8.34701 5.936 8.47501 5.808C8.60301 5.68 8.66679 5.52178 8.66634 5.33334C8.6659 5.14489 8.6019 4.98667 8.47434 4.85867C8.34679 4.73067 8.18856 4.66667 7.99968 4.66667C7.81079 4.66667 7.65256 4.73067 7.52501 4.85867C7.39745 4.98667 7.33345 5.14489 7.33301 5.33334C7.33256 5.52178 7.39656 5.68022 7.52501 5.80867C7.65345 5.93711 7.81168 6.00089 7.99968 6ZM7.99968 14.6667C7.07745 14.6667 6.21079 14.4916 5.39968 14.1413C4.58856 13.7911 3.88301 13.3162 3.28301 12.7167C2.68301 12.1171 2.20812 11.4116 1.85834 10.6C1.50856 9.78845 1.33345 8.92178 1.33301 8C1.33256 7.07822 1.50768 6.21156 1.85834 5.4C2.20901 4.58845 2.6839 3.88289 3.28301 3.28334C3.88212 2.68378 4.58768 2.20889 5.39968 1.85867C6.21168 1.50845 7.07834 1.33334 7.99968 1.33334C8.92101 1.33334 9.78767 1.50845 10.5997 1.85867C11.4117 2.20889 12.1172 2.68378 12.7163 3.28334C13.3155 3.88289 13.7906 4.58845 14.1417 5.4C14.4928 6.21156 14.6677 7.07822 14.6663 8C14.665 8.92178 14.4899 9.78845 14.141 10.6C13.7921 11.4116 13.3172 12.1171 12.7163 12.7167C12.1155 13.3162 11.4099 13.7913 10.5997 14.142C9.78945 14.4927 8.92279 14.6676 7.99968 14.6667ZM7.99968 13.3333C9.48856 13.3333 10.7497 12.8167 11.783 11.7833C12.8163 10.75 13.333 9.48889 13.333 8C13.333 6.51111 12.8163 5.25 11.783 4.21667C10.7497 3.18334 9.48856 2.66667 7.99968 2.66667C6.51079 2.66667 5.24968 3.18334 4.21634 4.21667C3.18301 5.25 2.66634 6.51111 2.66634 8C2.66634 9.48889 3.18301 10.75 4.21634 11.7833C5.24968 12.8167 6.51079 13.3333 7.99968 13.3333Z" fill="#AEAEAE"/>
</svg>
