<svg width="74" height="48" viewBox="0 0 74 48" fill="none" xmlns="http://www.w3.org/2000/svg">
<rect x="0.988281" y="0.78125" width="72" height="46" rx="4.5" fill="white"/>
<rect x="0.988281" y="0.78125" width="72" height="46" rx="4.5" stroke="#F2F2F2"/>
<path d="M33.8856 36.1571C25.8663 39.873 22.4661 41.5401 21.93 41.8852C21.8399 41.9778 21.727 42.045 21.6026 42.08C21.4783 42.115 21.3469 42.1166 21.2217 42.0845C21.0966 42.0525 20.9821 41.988 20.8898 41.8976C20.7975 41.8071 20.7308 41.6939 20.6963 41.5694L17.8028 31.1854C17.7765 31.0863 17.771 30.9829 17.7868 30.8816C17.8026 30.7803 17.8393 30.6835 17.8946 30.5971C17.9498 30.5108 18.0224 30.4369 18.1078 30.3801C18.1931 30.3234 18.2893 30.285 18.3903 30.2674L31.0363 28.2332C32.0029 29.7844 32.7423 31.466 33.232 33.2269C33.5095 34.1894 33.7277 35.168 33.8856 36.1571ZM53.8753 21.756C52.7956 19.8376 49.8134 20.5711 48.8963 22.2994L47.8828 24.0399C47.6378 24.4623 47.2926 24.8179 46.8777 25.0754C46.4627 25.3328 45.9907 25.4841 45.5035 25.516L43.3885 25.6629L44.4313 24.3263C44.9001 23.7229 45.2197 23.0172 45.3639 22.2667C45.5081 21.5163 45.4729 20.7424 45.2611 20.0082L45.0775 19.3693C45.0023 19.1189 44.8641 18.892 44.676 18.7104C44.4879 18.5289 44.2563 18.3986 44.0035 18.3323C43.7506 18.2659 43.4849 18.2657 43.2319 18.3315C42.9789 18.3974 42.7471 18.5271 42.5586 18.7083C42.3483 18.9328 36.2991 24.5708 36.4192 24.62C36.2788 24.7499 35.4533 25.9208 35.3177 26.0888C34.6582 27.0175 33.6899 27.6813 32.5858 27.9614C33.922 30.304 34.832 32.865 35.2736 35.5255C36.8722 34.7648 46.1935 31.4898 48.0297 30.7887C49.0779 30.4067 50.0372 29.8151 50.8491 29.0499C51.6609 28.2848 52.3083 27.3622 52.7517 26.3385L53.9488 23.5772C54.0751 23.2879 54.1342 22.9736 54.1214 22.6582C54.1087 22.3427 54.0246 22.0342 53.8753 21.756ZM20.0794 7.76616H28.7964C28.919 7.11576 29.265 6.52862 29.7745 6.10623C30.2841 5.68383 30.9252 5.45274 31.587 5.45288H48.8595C49.6127 5.45471 50.3346 5.75472 50.8671 6.28731C51.3997 6.8199 51.6997 7.54172 51.7016 8.29491V19.1564C50.8738 19.1757 50.0647 19.4065 49.3513 19.8268C48.6379 20.2471 48.0439 20.843 47.6258 21.5578L46.6197 23.2909C47.0494 21.8709 47.0029 20.3493 46.4874 18.9582C46.3396 18.4683 46.0689 18.0244 45.7012 17.6686C45.3335 17.3127 44.8809 17.0568 44.3865 16.9251C43.892 16.7933 43.3721 16.7902 42.8761 16.916C42.3801 17.0417 41.9244 17.2922 41.5525 17.6435C40.4417 18.7812 35.2926 23.3021 34.5759 24.6201C34.2292 25.1936 33.7725 25.6928 33.232 26.0889H31.587C30.8315 26.0862 30.108 25.7839 29.5751 25.2484C29.0423 24.7128 28.7437 23.9877 28.745 23.2322V10.7037H32.0423C32.2371 10.7037 32.4239 10.6264 32.5616 10.4886C32.6993 10.3509 32.7767 10.1641 32.7767 9.96937C32.7767 9.7746 32.6993 9.58781 32.5616 9.45009C32.4239 9.31236 32.2371 9.23499 32.0423 9.23499C32.0423 9.23499 21.134 9.22471 20.0793 9.23499C19.8861 9.2327 19.7015 9.15431 19.5656 9.01683C19.4298 8.87935 19.3536 8.69385 19.3536 8.50057C19.3536 8.30728 19.4298 8.12179 19.5657 7.98432C19.7015 7.84684 19.8861 7.76844 20.0794 7.76616ZM46.583 16.0499H47.8241C47.9958 16.0502 48.1659 16.0165 48.3246 15.9509C48.4833 15.8853 48.6275 15.789 48.7489 15.6676C48.8704 15.5462 48.9666 15.402 49.0322 15.2432C49.0979 15.0845 49.1315 14.9145 49.1313 14.7427V9.81507C49.1284 9.62219 49.0498 9.43817 48.9124 9.30279C48.7749 9.1674 48.5898 9.09151 48.3969 9.09151C48.204 9.09151 48.0188 9.1674 47.8814 9.30279C47.744 9.43817 47.6654 9.62219 47.6625 9.81507V11.4674H46.583C45.9783 11.472 45.4 11.7154 44.974 12.1446C44.5481 12.5738 44.3091 13.154 44.3091 13.7587C44.309 14.3633 44.5481 14.9435 44.974 15.3727C45.4 15.8019 45.9783 16.0453 46.583 16.0499ZM38.8427 13.9422C38.8614 16.7673 43.3771 16.7524 43.3958 13.9423V11.6291C43.3729 8.81547 38.8673 8.80897 38.8427 11.629V13.9422ZM35.5233 16.0499C36.4435 16.1604 38.7467 14.8403 37.6163 13.8027C37.5377 13.7471 37.449 13.7075 37.3551 13.6863C37.2612 13.665 37.1641 13.6625 37.0693 13.6789C36.9744 13.6953 36.8838 13.7302 36.8025 13.7817C36.7212 13.8332 36.6508 13.9002 36.5955 13.9789C36.4796 14.1593 36.3213 14.3085 36.1344 14.4135C35.9474 14.5185 35.7376 14.5761 35.5233 14.5811C35.0999 14.5241 34.7147 14.3061 34.448 13.9723C34.1812 13.6386 34.0535 13.2148 34.0913 12.7892C34.0483 12.3618 34.1739 11.9345 34.4414 11.5984C34.7089 11.2623 35.0971 11.044 35.5233 10.99C35.7373 10.9967 35.9465 11.0549 36.1332 11.1597C36.3198 11.2646 36.4784 11.4129 36.5955 11.5922C36.6509 11.6708 36.7213 11.7377 36.8026 11.7891C36.8839 11.8405 36.9746 11.8754 37.0694 11.8917C37.1642 11.9081 37.2612 11.9056 37.3551 11.8845C37.4489 11.8633 37.5377 11.8239 37.6163 11.7685C37.6949 11.713 37.7618 11.6426 37.8132 11.5613C37.8646 11.48 37.8994 11.3894 37.9158 11.2946C37.9322 11.1998 37.9297 11.1027 37.9085 11.0089C37.8874 10.915 37.848 10.8263 37.7925 10.7477C37.5421 10.3746 37.2046 10.068 36.8093 9.85431C36.414 9.64065 35.9726 9.52636 35.5233 9.52127C31.6961 9.65166 31.6889 15.9216 35.5233 16.0499ZM17.5131 12.8325H26.061C26.2557 12.8325 26.4425 12.7552 26.5803 12.6174C26.718 12.4797 26.7954 12.2929 26.7954 12.0982C26.7954 11.9034 26.718 11.7166 26.5803 11.5789C26.4425 11.4411 26.2557 11.3638 26.061 11.3638H17.5131C17.3202 11.3666 17.1362 11.4453 17.0008 11.5827C16.8654 11.7201 16.7895 11.9052 16.7895 12.0982C16.7895 12.2911 16.8654 12.4762 17.0008 12.6136C17.1362 12.751 17.3202 12.8297 17.5131 12.8325ZM22.5218 16.0605C22.5218 15.964 22.5028 15.8685 22.4659 15.7794C22.429 15.6903 22.3749 15.6093 22.3067 15.5411C22.2385 15.4729 22.1576 15.4188 22.0685 15.3819C21.9794 15.3451 21.8838 15.3261 21.7874 15.3261H13.7344C13.5396 15.3261 13.3528 15.4035 13.2151 15.5412C13.0774 15.6789 13 15.8657 13 16.0605C13 16.2552 13.0774 16.442 13.2151 16.5798C13.3528 16.7175 13.5396 16.7948 13.7344 16.7948H21.7874C21.8838 16.7949 21.9794 16.7759 22.0685 16.739C22.1576 16.7021 22.2385 16.648 22.3067 16.5798C22.3749 16.5116 22.429 16.4307 22.4659 16.3415C22.5028 16.2524 22.5218 16.1569 22.5218 16.0605ZM46.583 14.5811H47.6625V12.9361H46.583C46.3648 12.9361 46.1556 13.0228 46.0014 13.1771C45.8471 13.3313 45.7604 13.5405 45.7604 13.7587C45.7604 13.9768 45.8471 14.186 46.0014 14.3403C46.1556 14.4945 46.3648 14.5811 46.583 14.5811ZM40.9503 14.5811C41.4227 14.6279 41.911 14.4948 41.927 13.9422V11.629C41.9367 10.7596 40.3068 10.7329 40.3114 11.629V13.9423C40.3115 14.1117 40.3789 14.2741 40.4987 14.3939C40.6185 14.5137 40.7809 14.581 40.9503 14.5811Z" fill="#ED5A25"/>
</svg>
