<svg width="16" height="16" viewBox="0 0 16 16" fill="none" xmlns="http://www.w3.org/2000/svg">
<path d="M8.06669 12.3626L8.00002 12.4293L7.92669 12.3626C4.76003 9.4893 2.66669 7.5893 2.66669 5.66264C2.66669 4.3293 3.66669 3.3293 5.00003 3.3293C6.02669 3.3293 7.02669 3.99597 7.38002 4.90264H8.62003C8.97336 3.99597 9.97336 3.3293 11 3.3293C12.3334 3.3293 13.3334 4.3293 13.3334 5.66264C13.3334 7.5893 11.24 9.4893 8.06669 12.3626ZM11 1.99597C9.84002 1.99597 8.72669 2.53597 8.00002 3.38264C7.27336 2.53597 6.16003 1.99597 5.00003 1.99597C2.94669 1.99597 1.33336 3.60264 1.33336 5.66264C1.33336 8.17597 3.60003 10.236 7.03336 13.3493L8.00002 14.2293L8.96669 13.3493C12.4 10.236 14.6667 8.17597 14.6667 5.66264C14.6667 3.60264 13.0534 1.99597 11 1.99597Z" fill="#323232"/>
</svg>
