<svg width="10" height="10" viewBox="0 0 10 10" fill="none" xmlns="http://www.w3.org/2000/svg">
<path d="M8.62794 6.43805C8.03334 6.43805 7.45808 6.34137 6.92148 6.16734C6.8374 6.13902 6.74706 6.13488 6.66074 6.15539C6.57442 6.1759 6.49559 6.22024 6.43324 6.28336L5.67427 7.23569C4.30621 6.58308 3.02516 5.35037 2.34354 3.93396L3.2862 3.13149C3.41672 2.99613 3.4554 2.8076 3.40222 2.63841C3.22336 2.10182 3.13151 1.52655 3.13151 0.93195C3.13151 0.670906 2.91397 0.453369 2.65293 0.453369H0.980309C0.719265 0.453369 0.405045 0.569389 0.405045 0.93195C0.405045 5.42288 4.14185 9.15485 8.62794 9.15485C8.97117 9.15485 9.10652 8.8503 9.10652 8.58442V6.91663C9.10652 6.65559 8.88899 6.43805 8.62794 6.43805Z" fill="#5C5C5C"/>
</svg>
