<svg width="20" height="17" viewBox="0 0 20 17" fill="none" xmlns="http://www.w3.org/2000/svg">
<path d="M1.72508 1.94266C1.52898 1.94266 1.34091 2.02056 1.20225 2.15922C1.06359 2.29788 0.985687 2.48595 0.985687 2.68205C0.985687 2.87815 1.06359 3.06621 1.20225 3.20488C1.34091 3.34354 1.52898 3.42144 1.72508 3.42144H3.36653L5.30669 11.185C5.47157 11.8431 6.06087 12.2941 6.73889 12.2941H15.9591C16.6268 12.2941 17.1939 11.8505 17.3691 11.2072L19.2856 4.16083H17.7373L15.9583 10.8153H6.73815L4.79872 3.05174C4.71861 2.73324 4.53393 2.45083 4.27426 2.24974C4.01459 2.04865 3.69495 1.94052 3.36653 1.94266H1.72508ZM15.0341 12.2941C13.8178 12.2941 12.8159 13.296 12.8159 14.5123C12.8159 15.7286 13.8178 16.7305 15.0341 16.7305C16.2504 16.7305 17.2523 15.7286 17.2523 14.5123C17.2523 13.296 16.2504 12.2941 15.0341 12.2941ZM8.37959 12.2941C7.1633 12.2941 6.16142 13.296 6.16142 14.5123C6.16142 15.7286 7.1633 16.7305 8.37959 16.7305C9.59589 16.7305 10.5978 15.7286 10.5978 14.5123C10.5978 13.296 9.59589 12.2941 8.37959 12.2941ZM8.37959 13.7729C8.79661 13.7729 9.11899 14.0953 9.11899 14.5123C9.11899 14.9293 8.79661 15.2517 8.37959 15.2517C7.96258 15.2517 7.6402 14.9293 7.6402 14.5123C7.6402 14.0953 7.96258 13.7729 8.37959 13.7729ZM15.0341 13.7729C15.4511 13.7729 15.7735 14.0953 15.7735 14.5123C15.7735 14.9293 15.4511 15.2517 15.0341 15.2517C14.6171 15.2517 14.2947 14.9293 14.2947 14.5123C14.2947 14.0953 14.6171 13.7729 15.0341 13.7729Z" fill="#ED5A25"/>
<path d="M12.836 1.03687V3.62964H15.38V4.88647H12.836V7.46655H11.4835V4.88647H8.95029V3.62964H11.4835V1.03687H12.836Z" fill="#ED5A25" stroke="#ED5A25" stroke-width="0.337081"/>
</svg>
