<svg width="17" height="16" viewBox="0 0 17 16" fill="none" xmlns="http://www.w3.org/2000/svg">
<path fill-rule="evenodd" clip-rule="evenodd" d="M8.46282 1.33325C12.1448 1.33325 15.1295 4.31792 15.1295 7.99992C15.1318 9.53851 14.5997 11.0301 13.6241 12.2199L13.6375 12.2346L13.5495 12.3093C12.9242 13.0487 12.1451 13.6427 11.2666 14.0499C10.388 14.457 9.43114 14.6675 8.46282 14.6666C6.49615 14.6666 4.72948 13.8153 3.50948 12.4619L3.37615 12.3086L3.28815 12.2353L3.30148 12.2193C2.32609 11.0297 1.79401 9.53828 1.79615 7.99992C1.79615 4.31792 4.78082 1.33325 8.46282 1.33325ZM8.46282 11.3333C7.22282 11.3333 6.10215 11.7279 5.26748 12.2706C6.18921 12.9619 7.31066 13.3348 8.46282 13.3333C9.61497 13.3348 10.7364 12.9619 11.6581 12.2706C10.7043 11.6595 9.59556 11.3343 8.46282 11.3333ZM8.46282 2.66659C7.45917 2.66656 6.47587 2.94973 5.62596 3.48355C4.77605 4.01738 4.09402 4.78018 3.65826 5.6843C3.22249 6.58842 3.05069 7.59714 3.16258 8.59454C3.27448 9.59193 3.66554 10.5375 4.29082 11.3226C5.37148 10.5473 6.84615 9.99992 8.46282 9.99992C10.0795 9.99992 11.5541 10.5473 12.6348 11.3226C13.2601 10.5375 13.6512 9.59193 13.763 8.59454C13.8749 7.59714 13.7031 6.58842 13.2674 5.6843C12.8316 4.78018 12.1496 4.01738 11.2997 3.48355C10.4498 2.94973 9.46647 2.66656 8.46282 2.66659ZM8.46282 3.99992C9.17006 3.99992 9.84834 4.28087 10.3484 4.78097C10.8485 5.28106 11.1295 5.95934 11.1295 6.66659C11.1295 7.37383 10.8485 8.05211 10.3484 8.5522C9.84834 9.0523 9.17006 9.33325 8.46282 9.33325C7.75557 9.33325 7.07729 9.0523 6.5772 8.5522C6.0771 8.05211 5.79615 7.37383 5.79615 6.66659C5.79615 5.95934 6.0771 5.28106 6.5772 4.78097C7.07729 4.28087 7.75557 3.99992 8.46282 3.99992ZM8.46282 5.33325C8.10919 5.33325 7.77006 5.47373 7.52001 5.72378C7.26996 5.97382 7.12948 6.31296 7.12948 6.66659C7.12948 7.02021 7.26996 7.35935 7.52001 7.60939C7.77006 7.85944 8.10919 7.99992 8.46282 7.99992C8.81644 7.99992 9.15558 7.85944 9.40562 7.60939C9.65567 7.35935 9.79615 7.02021 9.79615 6.66659C9.79615 6.31296 9.65567 5.97382 9.40562 5.72378C9.15558 5.47373 8.81644 5.33325 8.46282 5.33325Z" fill="white"/>
</svg>
