<svg width="12" height="12" viewBox="0 0 12 12" fill="none" xmlns="http://www.w3.org/2000/svg">
<path d="M11.2497 6.75098L2.87217 6.75098L6.53217 10.411C6.82467 10.7035 6.82467 11.1835 6.53217 11.476C6.46278 11.5455 6.38037 11.6007 6.28964 11.6383C6.19891 11.6759 6.10164 11.6953 6.00342 11.6953C5.90519 11.6953 5.80793 11.6759 5.7172 11.6383C5.62647 11.6007 5.54405 11.5455 5.47467 11.476L0.532169 6.53348C0.462642 6.46409 0.407481 6.38168 0.369845 6.29095C0.332209 6.20022 0.312836 6.10296 0.312836 6.00473C0.312836 5.9065 0.332209 5.80924 0.369845 5.71851C0.407481 5.62778 0.462642 5.54536 0.532169 5.47598L5.47467 0.533479C5.54411 0.464042 5.62654 0.408964 5.71726 0.371385C5.80799 0.333806 5.90522 0.314465 6.00342 0.314465C6.10162 0.314465 6.19885 0.333806 6.28958 0.371385C6.3803 0.408964 6.46273 0.464042 6.53217 0.533479C6.60161 0.602915 6.65669 0.685349 6.69426 0.776072C6.73184 0.866795 6.75118 0.964033 6.75118 1.06223C6.75118 1.16043 6.73184 1.25766 6.69426 1.34839C6.65669 1.43911 6.60161 1.52154 6.53217 1.59098L2.87217 5.25098L11.2497 5.25098C11.6622 5.25098 11.9997 5.58848 11.9997 6.00098C11.9997 6.41348 11.6622 6.75098 11.2497 6.75098Z" fill="white"/>
</svg>
