<svg width="20" height="21" viewBox="0 0 20 21" fill="none" xmlns="http://www.w3.org/2000/svg">
<path fill-rule="evenodd" clip-rule="evenodd" d="M15.2657 12.5275C16.3048 11.1878 16.7946 9.50258 16.6353 7.8146C16.476 6.12662 15.6796 4.56273 14.4081 3.44109C13.1367 2.31945 11.4857 1.72431 9.79105 1.77675C8.09638 1.82919 6.48534 2.52527 5.28568 3.72338C4.08498 4.92232 3.38662 6.53398 3.33293 8.22993C3.27924 9.92589 3.87425 11.5785 4.99671 12.851C6.11917 14.1235 7.6846 14.9201 9.37399 15.0785C11.0634 15.2368 12.7496 14.7451 14.089 13.7034L14.1249 13.7409L17.6598 17.2767C17.7373 17.3541 17.8292 17.4156 17.9304 17.4575C18.0315 17.4994 18.1399 17.5209 18.2494 17.5209C18.3589 17.5209 18.4674 17.4994 18.5685 17.4575C18.6697 17.4156 18.7616 17.3541 18.839 17.2767C18.9164 17.1993 18.9779 17.1074 19.0198 17.0062C19.0617 16.905 19.0832 16.7966 19.0832 16.6871C19.0832 16.5776 19.0617 16.4692 19.0198 16.368C18.9779 16.2669 18.9164 16.175 18.839 16.0975L15.3032 12.5625L15.2657 12.5275ZM13.5357 4.90255C14.0062 5.36545 14.3804 5.91692 14.6367 6.52516C14.893 7.1334 15.0263 7.78637 15.029 8.4464C15.0317 9.10643 14.9037 9.76046 14.6523 10.3708C14.401 10.9811 14.0313 11.5356 13.5646 12.0023C13.0979 12.469 12.5434 12.8387 11.9331 13.09C11.3228 13.3414 10.6687 13.4694 10.0087 13.4667C9.34867 13.464 8.6957 13.3307 8.08746 13.0744C7.47922 12.8181 6.92775 12.4439 6.46485 11.9734C5.53978 11.0331 5.02373 9.76541 5.0291 8.4464C5.03447 7.12738 5.56083 5.86392 6.49353 4.93122C7.42622 3.99853 8.68968 3.47217 10.0087 3.4668C11.3277 3.46143 12.5954 3.97748 13.5357 4.90255Z" fill="#5C5C5C"/>
</svg>
