<svg width="234" height="229" viewBox="0 0 234 229" fill="none" xmlns="http://www.w3.org/2000/svg">
<g clip-path="url(#clip0_325_8055)">
<path d="M33.0919 36.6104C32.8347 36.2 32.8511 35.6856 33.1028 35.2697C33.1685 35.1547 33.2342 35.0453 33.2998 34.9249C33.3655 34.8045 33.4202 34.6896 33.4804 34.5692C33.6884 34.1314 34.1043 33.8359 34.5859 33.825L36.233 33.7757L36.0689 28.4127L34.4217 28.462C33.9401 28.4784 33.4968 28.2103 33.267 27.7889C33.1411 27.5536 32.9989 27.3292 32.8456 27.1103C32.572 26.7163 32.5337 26.2019 32.7581 25.7805L33.5352 24.3303L28.8015 21.7911L28.0244 23.2413C27.7946 23.6682 27.3513 23.9199 26.8698 23.909C26.6016 23.9035 26.3335 23.909 26.0708 23.9363C25.5892 23.9801 25.1241 23.7557 24.8669 23.3453L23.9968 21.9444L19.4328 24.7736L20.3029 26.18C20.5546 26.5904 20.5437 27.0994 20.2919 27.5153C20.2263 27.6302 20.1606 27.7396 20.0949 27.86C20.0347 27.975 19.9745 28.0953 19.9143 28.2157C19.7064 28.6535 19.285 28.949 18.8034 28.9655L17.1562 29.0147L17.3204 34.3777L18.9621 34.3229C19.4437 34.3065 19.887 34.5692 20.1223 34.996C20.2482 35.2314 20.3904 35.4557 20.5437 35.6801C20.8173 36.0741 20.8556 36.5885 20.6312 37.0154L19.8541 38.4656L24.5878 41.0047L25.3649 39.5546C25.5947 39.1277 26.0434 38.876 26.525 38.8869C26.7932 38.8924 27.0613 38.8869 27.3294 38.8596C27.811 38.8158 28.2762 39.0402 28.5279 39.4506L29.3925 40.846L33.9565 38.0168L33.0864 36.6159L33.0919 36.6104ZM24.6206 35.2697C22.4809 34.1205 21.6765 31.4554 22.8202 29.3157C23.9694 27.176 26.6345 26.3715 28.7742 27.5207C30.9139 28.6699 31.7183 31.3295 30.5691 33.4692C29.4199 35.609 26.7548 36.4189 24.6151 35.2697H24.6206Z" fill="#EBEBEB"/>
<path d="M16.8829 7.73251C16.5873 7.56286 16.4286 7.23999 16.4451 6.9007C16.4451 6.80767 16.4505 6.71464 16.4505 6.62161C16.4505 6.52858 16.4505 6.43555 16.4451 6.34252C16.4286 6.00323 16.5873 5.68583 16.8829 5.51618L17.8843 4.94158L16.0073 1.6855L15.0058 2.2601C14.7103 2.42975 14.3491 2.41333 14.07 2.22727C13.9113 2.12329 13.7526 2.03026 13.583 1.94818C13.282 1.79495 13.0905 1.48849 13.0905 1.15468V0H9.33093V1.1492C9.33093 1.48849 9.1394 1.78948 8.83842 1.9427C8.67425 2.03026 8.51007 2.12329 8.35137 2.2218C8.06681 2.40786 7.70563 2.42427 7.41559 2.25463L6.41414 1.68003L4.53711 4.93611L5.53856 5.51618C5.8286 5.68583 5.99277 6.00323 5.97635 6.34252C5.97635 6.43555 5.97088 6.52858 5.97088 6.62161C5.97088 6.71464 5.97088 6.80767 5.97635 6.9007C5.99277 7.23999 5.83407 7.56286 5.53856 7.73251L4.53711 8.30711L6.41414 11.5632L7.41012 10.9886C7.70563 10.8189 8.06134 10.8354 8.3459 11.0214C8.5046 11.1254 8.6633 11.2184 8.83295 11.3005C9.13393 11.4537 9.32546 11.7602 9.32546 12.094V13.2432H13.085V12.094C13.085 11.7547 13.2765 11.4537 13.5775 11.3005C13.7472 11.213 13.9059 11.1199 14.0646 11.0214C14.3491 10.8354 14.7103 10.8189 15.0003 10.9886L15.9963 11.5632L17.8734 8.30711L16.8774 7.73251H16.8829ZM11.208 9.70804C9.50605 9.70804 8.12701 8.329 8.12701 6.62708C8.12701 4.92516 9.50605 3.54612 11.208 3.54612C12.9099 3.54612 14.2889 4.92516 14.2889 6.62708C14.2889 8.329 12.9099 9.70804 11.208 9.70804Z" fill="#EBEBEB"/>
<path d="M228.467 85.375C228.171 85.2053 228.013 84.8825 228.029 84.5432C228.029 84.4501 228.035 84.3571 228.035 84.2641C228.035 84.1711 228.035 84.078 228.029 83.985C228.013 83.6457 228.171 83.3283 228.467 83.1587L229.468 82.5841L227.591 79.328L226.59 79.9026C226.294 80.0722 225.933 80.0558 225.654 79.8697C225.495 79.7658 225.337 79.6727 225.167 79.5907C224.866 79.4374 224.674 79.131 224.674 78.7972V77.6479H220.915V78.7972C220.915 79.1364 220.723 79.4374 220.422 79.5907C220.253 79.6782 220.094 79.7712 219.935 79.8697C219.651 80.0558 219.29 80.0722 219 79.9026L217.998 79.328L216.121 82.5841L217.123 83.1641C217.413 83.3338 217.577 83.6512 217.56 83.9905C217.56 84.0835 217.555 84.1765 217.555 84.2696C217.555 84.3626 217.555 84.4556 217.56 84.5486C217.577 84.8879 217.418 85.2108 217.123 85.3805L216.121 85.9551L217.998 89.2111L218.994 88.6365C219.29 88.4669 219.645 88.4833 219.93 88.6694C220.089 88.7733 220.247 88.8664 220.417 88.9485C220.718 89.1017 220.909 89.4081 220.909 89.742V90.8912H224.669V89.742C224.669 89.4027 224.861 89.1017 225.162 88.9485C225.331 88.8609 225.49 88.7679 225.649 88.6694C225.933 88.4833 226.294 88.4669 226.584 88.6365L227.58 89.2111L229.457 85.9551L228.461 85.3805L228.467 85.375ZM222.786 87.3505C221.085 87.3505 219.706 85.9715 219.706 84.2696C219.706 82.5676 221.085 81.1886 222.786 81.1886C224.488 81.1886 225.867 82.5676 225.867 84.2696C225.867 85.9715 224.488 87.3505 222.786 87.3505Z" fill="#EBEBEB"/>
<path d="M50.6303 131.885H2.3418V198.708H50.6303V131.885Z" fill="#EBEBEB"/>
<path d="M52.9674 129.406H0V131.885H52.9674V129.406Z" fill="#DBDBDB"/>
<path d="M69.6248 129.406H52.9668V131.885H69.6248V129.406Z" fill="#EBEBEB"/>
<path d="M66.9875 131.885H50.625V198.708H66.9875V131.885Z" fill="#DBDBDB"/>
<path d="M45.4366 162.82H7.5293V141.391H45.4366V162.82ZM7.66611 162.684H45.2998V141.527H7.66611V162.684Z" fill="#C7C7C7"/>
<path d="M28.5702 147.656H21.1934V151.898H28.5702V147.656Z" fill="#C7C7C7"/>
<path d="M30.8203 151.646H23.3066V147.908H30.8203V151.646ZM23.4435 151.509H30.6834V148.045H23.4435V151.509Z" fill="#C7C7C7"/>
<path d="M45.4366 189.723H7.5293V168.293H45.4366V189.723ZM7.66611 189.586H45.2998V168.43H7.66611V189.586Z" fill="#C7C7C7"/>
<path d="M28.5702 174.564H21.1934V178.805H28.5702V174.564Z" fill="#C7C7C7"/>
<path d="M30.8203 178.548H23.3066V174.81H30.8203V178.548ZM23.4435 178.411H30.6834V174.947H23.4435V178.411Z" fill="#C7C7C7"/>
<path d="M218.665 166.087H189.574V198.298H218.665V166.087Z" fill="#EBEBEB"/>
<path d="M233.688 166.093H218.666V198.309H233.688V166.093Z" fill="#DBDBDB"/>
<path d="M206.587 173.054H205.974H205.509L205.246 172.517L204.874 173.054L204.371 171.948L203.894 173.048H202.537H201.913L201.689 172.315L201.476 173.048H201.076V166.087H206.587V173.054Z" fill="white"/>
<path d="M232.647 196.087C231.536 193.794 230.431 191.501 229.342 189.192L226.086 182.264L222.868 175.303C221.801 172.977 220.744 170.646 219.699 168.309C220.81 170.602 221.916 172.895 223.005 175.204L226.261 182.132L229.478 189.093C230.546 191.419 231.602 193.75 232.647 196.087Z" fill="#EBEBEB"/>
<path d="M232.652 168.309C231.607 170.646 230.551 172.977 229.484 175.303L226.266 182.264L223.005 189.192C221.916 191.496 220.81 193.794 219.699 196.087C220.744 193.75 221.801 191.419 222.868 189.093L226.086 182.132L229.347 175.204C230.436 172.901 231.542 170.602 232.652 168.309Z" fill="#EBEBEB"/>
<path d="M213.626 133.926H184.535V166.137H213.626V133.926Z" fill="#EBEBEB"/>
<path d="M228.649 133.932H213.627V166.148H228.649V133.932Z" fill="#DBDBDB"/>
<path d="M201.549 140.887H200.936H200.471L200.209 140.351L199.837 140.887L199.333 139.787L198.857 140.887H197.5H196.876L196.652 140.154L196.438 140.887H196.033L196.039 133.926H201.549V140.887Z" fill="white"/>
<path d="M227.608 163.926C226.497 161.633 225.392 159.34 224.303 157.031L221.046 150.103L217.829 143.142C216.762 140.816 215.705 138.485 214.66 136.148C215.771 138.441 216.876 140.734 217.965 143.043L221.222 149.971L224.439 156.932C225.506 159.258 226.563 161.589 227.608 163.926Z" fill="#EBEBEB"/>
<path d="M227.613 136.148C226.568 138.485 225.512 140.816 224.445 143.142L221.227 150.103L217.965 157.031C216.876 159.335 215.771 161.633 214.66 163.926C215.705 161.589 216.762 159.258 217.829 156.932L221.046 149.971L224.308 143.043C225.397 140.739 226.502 138.441 227.613 136.148Z" fill="#EBEBEB"/>
<path d="M116.994 228.44C178.347 228.44 228.084 223.618 228.084 217.67C228.084 211.722 178.347 206.901 116.994 206.901C55.6409 206.901 5.9043 211.722 5.9043 217.67C5.9043 223.618 55.6409 228.44 116.994 228.44Z" fill="#EBEBEB"/>
<path d="M0.142578 198.44L29.3543 198.309L58.5714 198.26L116.995 198.167L175.424 198.26L204.635 198.309L233.847 198.44L204.635 198.572L175.424 198.621L116.995 198.714L58.5714 198.621L29.3543 198.572L0.142578 198.44Z" fill="#263238"/>
<path d="M182.774 21.7856H58.7969V186.461H182.774V21.7856Z" fill="#ED5A25"/>
<g opacity="0.1">
<path d="M182.774 21.7856H58.7969V186.461H182.774V21.7856Z" fill="black"/>
</g>
<path d="M186.139 21.7856H62.1621V186.461H186.139V21.7856Z" fill="#ED5A25"/>
<path d="M177.931 28.3586L68.4922 29.7531L70.3824 178.103L179.822 176.709L177.931 28.3586Z" fill="#EBEBEB"/>
<path d="M71.0563 27.9001L67.8457 176.228L177.268 178.596L180.479 30.2686L71.0563 27.9001Z" fill="#DBDBDB"/>
<path d="M178.878 29.053H69.4297V177.415H178.878V29.053Z" fill="white"/>
<path d="M96.6504 84.1874H86.1543V94.6835H96.6504V84.1874Z" fill="#EBEBEB"/>
<path d="M136.331 84.1874H102.32V85.7251H136.331V84.1874Z" fill="#263238"/>
<path d="M162.161 87.1753H102.32V88.713H162.161V87.1753Z" fill="#EBEBEB"/>
<path d="M162.161 90.1578H102.32V91.6956H162.161V90.1578Z" fill="#EBEBEB"/>
<path d="M162.161 93.1458H102.32V94.6835H162.161V93.1458Z" fill="#EBEBEB"/>
<path d="M86.9258 88.8882C87.3143 89.2111 87.681 89.5503 88.0476 89.8896C88.4143 90.2289 88.7645 90.5792 89.1257 90.9239C89.8316 91.6244 90.5157 92.3413 91.1833 93.0691L89.9794 93.1457C90.9316 91.1483 92.037 89.2494 93.2464 87.4106C93.8538 86.4913 94.4996 85.5993 95.1891 84.7292C95.8786 83.8645 96.6065 83.0163 97.4273 82.2283C97.1154 83.3228 96.705 84.3625 96.2562 85.3749C95.8075 86.3873 95.315 87.3778 94.7842 88.3409C93.7225 90.2672 92.5569 92.1333 91.2326 93.9009L90.5759 94.782L90.0286 93.9775C89.4704 93.1567 88.9287 92.3303 88.4088 91.4821C88.1571 91.0553 87.8889 90.6339 87.6427 90.2016C87.3964 89.7692 87.1501 89.3315 86.9258 88.8827V88.8882Z" fill="#ED5A25"/>
<path d="M96.6504 106.186H86.1543V116.682H96.6504V106.186Z" fill="#EBEBEB"/>
<path d="M136.337 106.186H102.32V107.724H136.337V106.186Z" fill="#263238"/>
<path d="M162.161 109.174H102.32V110.712H162.161V109.174Z" fill="#EBEBEB"/>
<path d="M162.161 112.157H102.32V113.694H162.161V112.157Z" fill="#EBEBEB"/>
<path d="M162.161 115.145H102.32V116.682H162.161V115.145Z" fill="#EBEBEB"/>
<path d="M96.6504 128.186H86.1543V138.682H96.6504V128.186Z" fill="#EBEBEB"/>
<path d="M136.331 128.186H102.32V129.723H136.331V128.186Z" fill="#263238"/>
<path d="M162.161 131.174H102.32V132.711H162.161V131.174Z" fill="#EBEBEB"/>
<path d="M162.161 134.156H102.32V135.694H162.161V134.156Z" fill="#EBEBEB"/>
<path d="M162.161 137.144H102.32V138.682H162.161V137.144Z" fill="#EBEBEB"/>
<path d="M96.6504 150.185H86.1543V160.681H96.6504V150.185Z" fill="#EBEBEB"/>
<path d="M136.337 150.185H102.32V151.722H136.337V150.185Z" fill="#263238"/>
<path d="M162.161 153.173H102.32V154.71H162.161V153.173Z" fill="#EBEBEB"/>
<path d="M162.161 156.155H102.32V157.693H162.161V156.155Z" fill="#EBEBEB"/>
<path d="M162.161 159.143H102.32V160.681H162.161V159.143Z" fill="#EBEBEB"/>
<path d="M103.808 72.772C103.693 72.8486 103.567 72.9088 103.43 72.9526C103.293 72.9964 103.151 73.0183 103.003 73.0183C102.784 73.0183 102.582 72.9745 102.401 72.8815C102.221 72.7939 102.062 72.6735 101.936 72.5312C101.805 72.3835 101.706 72.2193 101.635 72.0333C101.564 71.8472 101.531 71.6502 101.531 71.4532C101.531 71.2562 101.57 71.0482 101.646 70.8622C101.723 70.6761 101.827 70.5065 101.958 70.3642C102.089 70.2164 102.248 70.1015 102.429 70.0194C102.609 69.9319 102.806 69.8936 103.02 69.8936C103.233 69.8936 103.441 69.9373 103.622 70.0304C103.802 70.1234 103.956 70.2438 104.087 70.3915C104.218 70.5393 104.317 70.7089 104.388 70.895C104.459 71.0811 104.492 71.2726 104.492 71.4641C104.492 71.6721 104.454 71.8636 104.382 72.0497C104.311 72.2357 104.207 72.3999 104.076 72.5422L104.481 73.0019H104.01L103.808 72.7775V72.772ZM103.009 72.5805C103.102 72.5805 103.195 72.5696 103.277 72.5422C103.359 72.5148 103.436 72.482 103.507 72.4327L103.069 71.9238H103.54L103.759 72.181C103.835 72.077 103.89 71.9676 103.928 71.8417C103.966 71.7159 103.983 71.59 103.983 71.4587C103.983 71.3109 103.961 71.1686 103.912 71.0373C103.868 70.9005 103.797 70.7856 103.715 70.6761C103.627 70.5721 103.529 70.49 103.408 70.4244C103.288 70.3642 103.157 70.3313 103.003 70.3313C102.845 70.3313 102.708 70.3642 102.587 70.4298C102.467 70.4955 102.363 70.5831 102.281 70.6871C102.199 70.791 102.133 70.9114 102.089 71.0482C102.046 71.185 102.024 71.3219 102.024 71.4587C102.024 71.5955 102.046 71.7432 102.095 71.88C102.139 72.0168 102.204 72.1372 102.292 72.2412C102.379 72.3452 102.483 72.4273 102.604 72.4929C102.724 72.5531 102.861 72.586 103.014 72.586L103.009 72.5805Z" fill="#263238"/>
<path d="M106.271 72.5805C106.435 72.5805 106.567 72.5476 106.676 72.4874C106.786 72.4218 106.868 72.3397 106.933 72.2357C106.999 72.1317 107.043 72.0168 107.07 71.8855C107.098 71.7541 107.114 71.6173 107.114 71.4805V69.9154H107.606V71.4805C107.606 71.6939 107.579 71.8909 107.535 72.077C107.486 72.2631 107.409 72.4272 107.3 72.5695C107.191 72.7118 107.054 72.8213 106.884 72.9033C106.714 72.9854 106.512 73.0237 106.271 73.0237C106.03 73.0237 105.817 72.98 105.647 72.8979C105.478 72.8103 105.341 72.6954 105.237 72.5531C105.133 72.4108 105.056 72.2466 105.013 72.0606C104.969 71.8745 104.941 71.683 104.941 71.4805V69.9154H105.428V71.4805C105.428 71.6228 105.445 71.7596 105.472 71.8909C105.5 72.0223 105.549 72.1427 105.609 72.2412C105.675 72.3451 105.762 72.4272 105.872 72.4874C105.981 72.5476 106.113 72.5805 106.271 72.5805Z" fill="#263238"/>
<path d="M109.028 69.9099H109.455L110.669 72.9963H110.155L109.827 72.1591H108.634L108.311 72.9963H107.791L109.017 69.9099H109.028ZM109.739 71.7979L109.241 70.4736L108.727 71.7979H109.734H109.739Z" fill="#263238"/>
<path d="M111.059 72.9963V69.9099H111.546V72.5695H113.204V73.0018H111.059V72.9963Z" fill="#263238"/>
<path d="M113.598 72.9963V69.9099H114.085V72.9963H113.598Z" fill="#263238"/>
<path d="M117.046 70.3369H116.017V72.9964H115.525V70.3369H114.496V69.9045H117.046V70.3369Z" fill="#263238"/>
<path d="M117.687 69.9099L118.54 71.4586L119.4 69.9099H119.936L118.781 71.8909V72.9963H118.294V71.8855L117.15 69.9099H117.687Z" fill="#263238"/>
<path d="M122.014 69.9099H122.441L123.656 72.9963H123.141L122.813 72.1591H121.62L121.297 72.9963H120.777L122.003 69.9099H122.014ZM122.726 71.7979L122.228 70.4736L121.713 71.7979H122.72H122.726Z" fill="#263238"/>
<path d="M125.823 70.6323C125.796 70.5995 125.752 70.5666 125.697 70.5283C125.643 70.49 125.577 70.4572 125.506 70.4244C125.435 70.3915 125.353 70.3642 125.265 70.3477C125.177 70.3259 125.084 70.3149 124.991 70.3149C124.783 70.3149 124.636 70.3532 124.537 70.4298C124.439 70.5064 124.389 70.6104 124.389 70.7418C124.389 70.8184 124.406 70.8786 124.433 70.9278C124.466 70.9771 124.51 71.0154 124.576 71.0537C124.641 71.092 124.718 71.1193 124.816 71.1467C124.915 71.1741 125.024 71.2014 125.15 71.2343C125.309 71.2726 125.446 71.3164 125.572 71.3601C125.697 71.4039 125.801 71.4641 125.889 71.5298C125.976 71.5955 126.042 71.6775 126.091 71.776C126.141 71.8745 126.163 71.9895 126.163 72.1317C126.163 72.2904 126.135 72.4218 126.075 72.5367C126.015 72.6516 125.933 72.7392 125.834 72.8103C125.73 72.8815 125.61 72.9362 125.473 72.969C125.336 73.0019 125.188 73.0183 125.035 73.0183C124.8 73.0183 124.576 72.9854 124.357 72.9143C124.138 72.8432 123.941 72.7392 123.766 72.6024L123.99 72.1865C124.028 72.2248 124.083 72.2686 124.154 72.3123C124.225 72.3561 124.307 72.3999 124.4 72.4382C124.493 72.4765 124.597 72.5093 124.707 72.5367C124.816 72.5641 124.931 72.5805 125.052 72.5805C125.243 72.5805 125.391 72.5476 125.495 72.482C125.599 72.4163 125.654 72.3178 125.654 72.1865C125.654 72.1099 125.632 72.0442 125.593 71.9895C125.555 71.9347 125.5 71.891 125.424 71.8527C125.353 71.8143 125.265 71.776 125.161 71.7487C125.057 71.7158 124.937 71.683 124.805 71.6502C124.652 71.6119 124.515 71.5681 124.4 71.5243C124.286 71.4805 124.192 71.4258 124.116 71.3601C124.039 71.2945 123.985 71.2233 123.946 71.1358C123.908 71.0482 123.886 70.9442 123.886 70.8238C123.886 70.6706 123.913 70.5393 123.974 70.4244C124.034 70.3094 124.11 70.2055 124.209 70.1288C124.307 70.0468 124.428 69.9866 124.565 69.9483C124.701 69.91 124.849 69.8881 125.008 69.8881C125.216 69.8881 125.407 69.9209 125.588 69.9866C125.763 70.0522 125.922 70.1343 126.053 70.2328L125.829 70.6323H125.823Z" fill="#263238"/>
<path d="M128.477 70.6323C128.449 70.5995 128.406 70.5666 128.351 70.5283C128.296 70.49 128.231 70.4572 128.159 70.4244C128.088 70.3915 128.006 70.3642 127.913 70.3477C127.826 70.3259 127.733 70.3149 127.639 70.3149C127.432 70.3149 127.284 70.3532 127.185 70.4298C127.087 70.5064 127.038 70.6104 127.038 70.7418C127.038 70.8184 127.054 70.8786 127.081 70.9278C127.114 70.9771 127.158 71.0154 127.224 71.0537C127.289 71.092 127.366 71.1193 127.464 71.1467C127.557 71.1741 127.672 71.2014 127.798 71.2343C127.957 71.2726 128.094 71.3164 128.22 71.3601C128.345 71.4039 128.449 71.4641 128.537 71.5298C128.625 71.5955 128.69 71.6775 128.739 71.776C128.789 71.8745 128.811 71.9895 128.811 72.1317C128.811 72.2904 128.783 72.4218 128.723 72.5367C128.663 72.6516 128.581 72.7392 128.477 72.8103C128.373 72.8815 128.252 72.9362 128.116 72.969C127.979 73.0019 127.831 73.0183 127.678 73.0183C127.442 73.0183 127.218 72.9854 126.999 72.9143C126.78 72.8432 126.583 72.7392 126.408 72.6024L126.633 72.1865C126.671 72.2248 126.726 72.2686 126.797 72.3123C126.868 72.3561 126.95 72.3999 127.043 72.4382C127.136 72.4765 127.24 72.5093 127.349 72.5367C127.459 72.5641 127.574 72.5805 127.694 72.5805C127.886 72.5805 128.034 72.5476 128.137 72.482C128.241 72.4163 128.296 72.3178 128.296 72.1865C128.296 72.1099 128.274 72.0442 128.236 71.9895C128.198 71.9347 128.143 71.891 128.066 71.8527C127.995 71.8143 127.908 71.776 127.804 71.7487C127.7 71.7158 127.579 71.683 127.448 71.6502C127.295 71.6119 127.158 71.5681 127.043 71.5243C126.928 71.4805 126.835 71.4258 126.758 71.3601C126.682 71.2945 126.627 71.2233 126.589 71.1358C126.55 71.0482 126.529 70.9442 126.529 70.8238C126.529 70.6706 126.556 70.5393 126.616 70.4244C126.676 70.3094 126.753 70.2055 126.851 70.1288C126.95 70.0468 127.07 69.9866 127.207 69.9483C127.344 69.91 127.492 69.8881 127.65 69.8881C127.858 69.8881 128.05 69.9209 128.231 69.9866C128.406 70.0522 128.564 70.1343 128.696 70.2328L128.471 70.6323H128.477Z" fill="#263238"/>
<path d="M130.595 72.5805C130.759 72.5805 130.891 72.5476 131 72.4874C131.109 72.4218 131.192 72.3397 131.257 72.2357C131.323 72.1317 131.367 72.0168 131.394 71.8855C131.421 71.7541 131.438 71.6173 131.438 71.4805V69.9154H131.93V71.4805C131.93 71.6939 131.908 71.8909 131.854 72.077C131.804 72.2631 131.728 72.4272 131.618 72.5695C131.509 72.7118 131.372 72.8213 131.202 72.9033C131.033 72.9854 130.83 73.0237 130.59 73.0237C130.349 73.0237 130.135 72.98 129.966 72.8979C129.796 72.8103 129.659 72.6954 129.555 72.5531C129.451 72.4108 129.375 72.2466 129.331 72.0606C129.287 71.8745 129.26 71.683 129.26 71.4805V69.9154H129.747V71.4805C129.747 71.6228 129.763 71.7596 129.791 71.8909C129.818 72.0223 129.867 72.1427 129.927 72.2412C129.993 72.3451 130.081 72.4272 130.19 72.4874C130.3 72.5476 130.431 72.5805 130.595 72.5805Z" fill="#263238"/>
<path d="M132.576 72.9963V69.9099H133.922C134.059 69.9099 134.191 69.9373 134.305 69.9975C134.42 70.0577 134.524 70.1288 134.606 70.2273C134.689 70.3203 134.754 70.4298 134.803 70.5502C134.853 70.6706 134.875 70.791 134.875 70.9168C134.875 71.0208 134.858 71.1193 134.831 71.2178C134.803 71.3163 134.76 71.4039 134.71 71.4805C134.661 71.5571 134.595 71.6337 134.519 71.6939C134.442 71.7541 134.36 71.7979 134.273 71.8253L135 73.0018H134.448L133.78 71.9292H133.069V73.0018H132.582L132.576 72.9963ZM133.063 71.4914H133.917C133.988 71.4914 134.048 71.475 134.108 71.4477C134.163 71.4148 134.212 71.3765 134.256 71.3218C134.295 71.2671 134.327 71.2069 134.349 71.1357C134.371 71.0646 134.382 70.9934 134.382 70.9168C134.382 70.8402 134.371 70.7636 134.338 70.6925C134.311 70.6213 134.273 70.5611 134.229 70.5119C134.185 70.4572 134.13 70.4188 134.07 70.386C134.01 70.3532 133.95 70.3422 133.884 70.3422H133.058V71.4969L133.063 71.4914Z" fill="#263238"/>
<path d="M136.313 69.9099H136.74L137.955 72.9963H137.44L137.112 72.1591H135.919L135.596 72.9963H135.076L136.302 69.9099H136.313ZM137.024 71.7979L136.526 70.4736L136.012 71.7979H137.019H137.024Z" fill="#263238"/>
<path d="M138.825 70.8238V72.9963H138.338V69.9099H138.721L140.489 72.1372V69.9154H140.981V72.9963H140.576L138.83 70.8238H138.825Z" fill="#263238"/>
<path d="M141.48 71.4313C141.48 71.2452 141.513 71.0592 141.579 70.8786C141.645 70.6925 141.743 70.5283 141.874 70.3806C142.006 70.2328 142.159 70.1179 142.345 70.0249C142.531 69.9373 142.739 69.8881 142.974 69.8881C143.254 69.8881 143.494 69.9483 143.697 70.0741C143.899 70.2 144.047 70.3587 144.151 70.5612L143.768 70.8184C143.724 70.7253 143.669 70.6487 143.609 70.5831C143.549 70.5174 143.483 70.4681 143.412 70.4298C143.341 70.3915 143.264 70.3642 143.188 70.3477C143.111 70.3313 143.035 70.3259 142.963 70.3259C142.799 70.3259 142.657 70.3587 142.537 70.4244C142.416 70.49 142.312 70.5776 142.23 70.6816C142.148 70.791 142.082 70.9114 142.044 71.0427C142 71.1741 141.978 71.3109 141.978 71.4422C141.978 71.5955 142 71.7377 142.055 71.8745C142.104 72.0114 142.175 72.1317 142.263 72.2357C142.351 72.3397 142.455 72.4218 142.58 72.4875C142.701 72.5477 142.838 72.5805 142.98 72.5805C143.057 72.5805 143.133 72.5695 143.215 72.5531C143.297 72.5367 143.374 72.5039 143.445 72.4601C143.522 72.4163 143.587 72.3671 143.648 72.3014C143.708 72.2357 143.762 72.1591 143.801 72.0715L144.206 72.3014C144.156 72.4163 144.085 72.5203 143.998 72.6078C143.91 72.6954 143.806 72.772 143.691 72.8322C143.576 72.8924 143.461 72.9417 143.33 72.969C143.204 73.0019 143.078 73.0183 142.958 73.0183C142.739 73.0183 142.542 72.9745 142.362 72.8815C142.181 72.7884 142.028 72.668 141.896 72.5203C141.765 72.3725 141.667 72.2029 141.59 72.0114C141.519 71.8198 141.48 71.6283 141.48 71.4313Z" fill="#263238"/>
<path d="M146.766 72.564V72.9963H144.648V69.9099H146.728V70.3422H145.135V71.2233H146.515V71.6282H145.135V72.5695H146.766V72.564Z" fill="#263238"/>
<path d="M133.309 42.2469H137.331L146.235 65.6579H141.551L139.373 59.8243H131.197L129.052 65.6579H124.367L133.304 42.2469H133.309ZM138.552 56.623L135.323 47.4238L131.957 56.623H138.552Z" fill="#263238"/>
<path d="M151.034 18.7812H97.2734V35.1711H151.034V18.7812Z" fill="#C7C7C7"/>
<path d="M140.593 9.823H107.233L105.756 18.7813H142.569L140.599 9.823H140.593ZM124.154 16.2695C123.071 16.2695 122.189 15.3939 122.189 14.3049C122.189 13.2214 123.071 12.3403 124.154 12.3403C125.238 12.3403 126.119 13.2214 126.119 14.3049C126.119 15.3884 125.243 16.2695 124.154 16.2695Z" fill="#C7C7C7"/>
<path d="M142.563 18.7812H105.75L106.078 16.7783H142.12L142.563 18.7812Z" fill="#A6A6A6"/>
<path d="M220.866 169.267C220.533 170.684 220.182 172.085 220.111 173.541C220.15 173.612 220.144 173.874 220.1 173.803C220.089 174.039 219.734 173.995 219.734 173.765C219.734 173.612 219.739 173.464 219.75 173.316C218.913 172.282 217.703 171.625 216.724 170.722C215.93 169.995 215.367 169.124 215.066 168.085C214.25 165.283 215.016 162.317 214.037 159.52C213.194 157.113 211.684 155.017 210.403 152.833C209.052 150.524 208.056 148.099 207.957 145.396C207.875 143.328 208.127 140.569 209.703 139.015C211.372 137.368 213.446 138.605 214.726 140.071C218.437 144.329 220.155 149.708 220.845 155.214C221.228 158.256 221.627 161.321 221.534 164.396C221.485 166.049 221.244 167.663 220.872 169.267H220.866Z" fill="#ED5A25"/>
<path d="M220.129 174.662C220.32 171.784 220.309 168.9 220.025 166.038C220.025 166.027 220.041 166.022 220.041 166.005C220.09 163.674 220.271 161.348 220.183 159.017C220.085 156.483 219.713 153.993 219.154 151.52C219.149 151.492 219.105 151.498 219.111 151.525C219.57 153.938 219.833 156.401 219.921 158.858C219.97 160.177 219.959 161.496 219.888 162.809C219.866 163.236 219.828 163.668 219.795 164.101C218.853 157.539 216.435 151.312 212.856 145.741C212.806 145.664 212.675 145.741 212.719 145.823C215.291 150.026 217.19 154.644 218.366 159.438C216.582 156.133 213.89 153.413 211.887 150.239C211.876 150.223 211.849 150.239 211.854 150.256C213.649 153.791 216.615 156.582 218.509 160.062C218.837 161.479 219.105 162.913 219.308 164.358C219.581 166.339 219.713 168.331 219.74 170.323C218.651 168.293 217.524 166.35 216.637 164.199C216.615 164.145 216.533 164.183 216.55 164.238C217.305 166.47 218.323 168.873 219.745 170.777C219.751 172.189 219.713 173.601 219.631 175.013C219.406 178.778 218.766 182.493 218.47 186.248C218.459 186.362 218.618 186.373 218.64 186.264C219.423 182.477 219.866 178.515 220.123 174.657L220.129 174.662Z" fill="#263238"/>
<path d="M216.128 145.615C216.117 145.588 216.079 145.604 216.085 145.631C216.774 147.536 217.163 149.462 217.661 151.41C217.682 151.498 217.814 151.481 217.803 151.388C217.6 149.407 216.894 147.437 216.128 145.615Z" fill="#263238"/>
<path d="M233.595 153.588C233.152 154.705 232.594 155.788 232.014 156.839C230.777 159.088 229.486 161.151 229.25 163.767C229.146 164.938 229.108 166.109 228.752 167.236C228.446 168.211 227.943 169.113 227.368 169.956C226.027 171.91 224.347 173.595 223.105 175.626C221.808 177.733 220.856 180.053 220.27 182.461C220.237 182.592 220.029 182.559 220.062 182.428C220.062 182.417 220.068 182.411 220.068 182.4C220.068 182.395 220.057 182.39 220.057 182.373C219.86 176.758 220.308 171.095 222.021 165.715C222.771 163.362 223.696 161.02 224.741 158.787C225.661 156.833 226.804 154.962 228.413 153.501C229.458 152.559 231.724 150.775 233.212 151.717C233.929 152.171 233.875 152.888 233.59 153.588H233.595Z" fill="#ED5A25"/>
<path d="M227.954 166.317C226.99 167.964 225.847 169.497 224.692 171.007C224.15 171.718 223.598 172.419 223.056 173.13C222.799 173.464 222.514 173.798 222.279 174.159C222.426 173.568 222.574 172.977 222.722 172.386C223.444 169.546 224.145 166.684 225.223 163.958C226.279 161.293 227.68 158.787 229.125 156.314C229.163 156.248 229.059 156.204 229.021 156.264C227.833 158.218 226.629 160.166 225.633 162.224C225.075 163.373 224.604 164.555 224.194 165.759C224.681 163.181 225.261 160.702 226.109 158.207C226.115 158.185 226.087 158.169 226.077 158.191C225.042 160.642 224.298 163.395 224.09 166.049V166.06C223.849 166.788 223.625 167.527 223.411 168.265C222.525 171.406 221.748 174.58 221.031 177.771C221.042 175.669 221.173 173.601 221.573 171.527C221.584 171.478 221.513 171.467 221.502 171.516C220.982 173.656 220.746 175.905 220.96 178.099C220.686 179.309 220.424 180.523 220.166 181.738C219.614 184.327 218.935 186.964 218.612 189.591C218.601 189.657 218.7 189.673 218.716 189.608C219.099 188.19 219.335 186.724 219.646 185.284C219.964 183.845 220.287 182.406 220.621 180.972C221.108 178.882 221.622 176.797 222.142 174.717C222.492 173.951 223.16 173.278 223.669 172.638C224.221 171.937 224.774 171.231 225.31 170.52C226.312 169.19 227.231 167.811 228.014 166.339C228.03 166.306 227.981 166.284 227.965 166.317H227.954Z" fill="#263238"/>
<path d="M228.194 163.92C226.974 165.485 225.868 167.215 224.998 168.993C224.987 169.015 225.02 169.042 225.037 169.015C226.109 167.329 227.171 165.633 228.243 163.948C228.26 163.92 228.216 163.887 228.194 163.915V163.92Z" fill="#263238"/>
<path d="M204.286 158.913C205.014 160.166 205.845 161.671 205.534 163.176C205.337 164.128 204.636 164.9 204.51 165.874C204.226 168.019 206.365 169.436 207.914 170.449C211.772 172.977 217.058 175.237 217.759 180.403C217.786 180.584 218.104 180.54 218.076 180.359C218.076 180.348 218.076 180.337 218.071 180.327C218.076 180.316 218.087 180.31 218.087 180.294C218.585 177.678 218.574 175.007 218.016 172.402C217.442 169.737 216.276 167.346 214.908 165.004C212.587 161.042 210.13 156.992 206.617 153.955C205.643 153.118 203.657 151.607 202.885 153.501C202.135 155.34 203.394 157.375 204.286 158.902V158.913Z" fill="#ED5A25"/>
<path d="M207.815 167.308C210.37 170.077 214.436 171.625 216.636 174.728C215.334 169.978 213.172 165.704 209.856 161.988C209.768 161.895 209.905 161.759 209.998 161.846C212.428 164.183 214.228 166.908 215.542 169.874C214.951 167.762 214.124 165.759 213.156 163.772C213.117 163.696 213.227 163.63 213.271 163.707C214.507 165.814 215.328 168.178 215.843 170.564C218.743 177.585 219.011 185.821 218.404 193.219C218.393 193.323 218.234 193.329 218.239 193.219C218.404 187.386 218.311 181.454 216.915 175.757C216.888 175.637 216.855 175.522 216.822 175.401C214.425 172.063 210.381 170.514 207.776 167.346C207.749 167.313 207.793 167.269 207.82 167.302L207.815 167.308Z" fill="#263238"/>
<path d="M207.219 164.927C208.559 166.158 209.884 167.417 211.225 168.648C211.235 168.659 211.225 168.687 211.203 168.676C209.742 167.685 208.253 166.377 207.137 165.009C207.093 164.955 207.164 164.878 207.219 164.927Z" fill="#263238"/>
<path d="M207.011 159.592C208.231 161.545 209.506 163.378 211.028 165.113C211.05 165.135 211.017 165.168 210.995 165.146C209.364 163.575 207.919 161.677 206.94 159.63C206.918 159.581 206.984 159.542 207.011 159.586V159.592Z" fill="#263238"/>
<path d="M213.053 198.44H224.807L223.226 182.62H214.864L213.053 198.44Z" fill="#455A64"/>
<path d="M214.568 185.192H223.483L223.226 182.62H214.864L214.568 185.192Z" fill="#263238"/>
<path d="M213.418 183.396H224.439V180.868H213.418V183.396Z" fill="#455A64"/>
<path d="M116.413 53.23H109.43C109.43 53.23 109.408 53.4817 109.419 53.8921C109.425 54.0344 109.43 54.1986 109.446 54.3737C109.468 54.7623 109.518 55.2165 109.616 55.6871C109.649 55.8403 109.687 56.0045 109.726 56.1632C109.835 56.5681 109.988 56.9786 110.191 57.3452C110.273 57.5149 110.371 57.6681 110.481 57.8159C111.006 58.5273 111.783 59.0307 112.927 59.0307C114.071 59.0307 114.848 58.5273 115.368 57.8159C115.477 57.6681 115.576 57.5094 115.663 57.3452C115.866 56.9676 116.013 56.5681 116.123 56.1632C116.161 55.999 116.199 55.8403 116.232 55.6871C116.331 55.2165 116.38 54.7623 116.402 54.3737C116.413 54.1986 116.424 54.0399 116.424 53.8921C116.435 53.4872 116.418 53.23 116.418 53.23H116.413ZM113.124 58.1114H112.719V53.8429H113.124V58.1114Z" fill="#ED5A25"/>
<path d="M116.43 52.7046H109.42C109.42 51.3365 110.887 50.0396 112.928 50.0396C114.969 50.0396 116.436 51.331 116.436 52.7046H116.43Z" fill="#ED5A25"/>
<path d="M109.896 54.3682H108.544L107.592 52.732L108.002 52.4912L108.818 53.8921H109.896V54.3682Z" fill="#ED5A25"/>
<path d="M110.251 55.6871H107.865V56.1632H110.251V55.6871Z" fill="#ED5A25"/>
<path d="M108.643 58.7461L108.287 58.4287L109.261 57.3452H110.832V57.8213H109.475L108.643 58.7461Z" fill="#ED5A25"/>
<path d="M117.293 54.3682H115.947V53.8921H117.02L117.835 52.4912L118.246 52.732L117.293 54.3682Z" fill="#ED5A25"/>
<path d="M117.978 55.6871H115.592V56.1632H117.978V55.6871Z" fill="#ED5A25"/>
<path d="M117.201 58.7461L116.369 57.8213H115.012V57.3452H116.577L117.551 58.4233L117.201 58.7461Z" fill="#ED5A25"/>
<path d="M111.981 51.4077L110.006 49.4321V47.5332H110.482V49.2351L112.321 51.0684L111.981 51.4077Z" fill="#ED5A25"/>
<path d="M113.865 51.4077L113.525 51.0684L115.359 49.2351V47.5332H115.835V49.4321L113.865 51.4077Z" fill="#ED5A25"/>
<path d="M142.249 216.34C143.333 216.691 174.164 216.291 175.33 215.531C175.778 215.251 175.981 210.753 176.068 205.314C176.068 205.259 176.577 185.219 176.577 185.219L156.844 185.427L156.187 205.521C156.187 205.521 144.454 210.956 143.261 211.924C142.079 212.893 141.166 216.001 142.249 216.346V216.34Z" fill="#FFCEC7"/>
<path d="M176.227 199.048C176.14 202.523 176.068 205.292 176.068 205.313C175.981 210.753 175.773 215.246 175.33 215.53C174.164 216.291 143.327 216.691 142.249 216.34C141.166 215.996 142.079 212.887 143.261 211.919C144.449 210.945 156.187 205.516 156.187 205.516L156.401 199.048H176.227Z" fill="#DBDBDB"/>
<path d="M151.514 207.623C151.596 207.601 151.634 207.574 151.64 207.552C151.64 207.552 151.59 207.574 151.514 207.623Z" fill="#ED5A25"/>
<path d="M142.184 216.324C142.89 216.548 156.007 216.51 165.556 216.253C167.767 216.193 169.786 216.116 171.417 216.034C173.666 215.914 175.171 215.782 175.418 215.624C175.959 215.273 176.173 208.685 176.249 201.729L156.1 201.86L156.226 205.494C156.226 205.494 144.416 210.912 143.218 211.88C142.025 212.849 141.1 215.968 142.184 216.324Z" fill="#ED5A25"/>
<path d="M142.615 215.076C147.803 214.901 168.757 214.677 173.901 214.901C173.945 214.901 173.945 214.934 173.901 214.934C168.762 215.219 147.809 215.273 142.615 215.164C142.506 215.164 142.506 215.082 142.615 215.076Z" fill="#263238"/>
<path d="M155.48 204.35C157.522 203.951 160.023 204.241 161.599 205.68C161.659 205.735 161.582 205.822 161.511 205.801C159.492 205.182 157.604 204.794 155.491 204.608C155.344 204.597 155.333 204.378 155.48 204.35Z" fill="#263238"/>
<path d="M154.014 205.253C156.055 204.854 158.556 205.144 160.132 206.583C160.192 206.638 160.115 206.725 160.044 206.704C158.025 206.085 156.137 205.697 154.025 205.511C153.877 205.5 153.866 205.281 154.014 205.253Z" fill="#263238"/>
<path d="M152.547 206.156C154.588 205.757 157.089 206.047 158.665 207.486C158.725 207.541 158.643 207.628 158.577 207.607C156.558 206.988 154.67 206.6 152.558 206.414C152.41 206.403 152.399 206.184 152.547 206.156Z" fill="#263238"/>
<path d="M151.08 207.059C153.121 206.66 155.622 206.95 157.198 208.389C157.258 208.444 157.182 208.531 157.111 208.509C155.091 207.891 153.203 207.503 151.091 207.316C150.943 207.306 150.932 207.087 151.08 207.059Z" fill="#263238"/>
<path d="M182.362 96.3909C182.362 96.3909 177.333 148.619 176.584 152.592C176.408 153.495 176.113 203.677 176.113 203.677L155.061 203.354C155.061 203.354 157.107 160.194 158.07 152.248C159.034 144.302 163.543 96.3909 163.543 96.3909H182.362Z" fill="#263238"/>
<path d="M175.468 199.294C174.85 199.19 174.199 199.184 173.569 199.157C172.934 199.13 172.3 199.097 171.67 199.069C170.423 199.02 169.18 198.966 167.933 198.922C165.399 198.834 162.86 198.747 160.326 198.654C158.898 198.599 157.469 198.599 156.041 198.615C155.986 198.615 155.981 198.697 156.041 198.703C161.087 199.212 166.182 199.321 171.249 199.442C171.971 199.458 172.699 199.469 173.427 199.48C174.111 199.491 174.812 199.529 175.49 199.447C175.583 199.436 175.556 199.31 175.474 199.294H175.468Z" fill="#37474F"/>
<path d="M179.524 98.6946C177.986 111.429 176.454 124.169 175.185 136.93C174.555 143.262 173.964 149.599 173.57 155.952C173.176 162.355 173.018 168.763 172.93 175.171C172.831 182.417 172.662 189.673 172.777 196.919C172.777 196.99 172.881 196.984 172.886 196.919C173.516 184.108 173.335 171.275 174.014 158.47C174.692 145.648 176.082 132.897 177.494 120.141C178.282 113.005 179.021 105.863 179.76 98.7275C179.771 98.6016 179.546 98.5742 179.53 98.7001L179.524 98.6946Z" fill="#37474F"/>
<path d="M185.104 218.754C186.237 218.841 216.127 211.262 217.085 210.25C217.451 209.872 216.603 205.45 215.421 200.142C215.41 200.087 215.394 200.033 215.383 199.978C215.142 198.883 208.843 180.485 208.843 180.485L189.449 185.482L196.043 204.657L196.136 204.98C196.136 204.98 185.99 212.997 185.06 214.223C184.135 215.437 183.976 218.677 185.109 218.759L185.104 218.754Z" fill="#FFCEC7"/>
<path d="M217.085 210.25C216.132 211.262 186.242 218.841 185.109 218.754C183.976 218.672 184.135 215.437 185.06 214.217C185.99 212.997 196.136 204.974 196.136 204.974L196.043 204.651L194.106 199.026C197.876 197.811 207.573 195.392 213.423 193.964C214.463 197.072 215.301 199.589 215.383 199.972C215.399 200.033 215.41 200.087 215.421 200.142C216.603 205.45 217.457 209.872 217.085 210.25Z" fill="#DBDBDB"/>
<path d="M185.061 218.891C185.8 218.94 198.523 215.738 207.728 213.177C209.856 212.586 211.799 212.023 213.364 211.552C215.515 210.895 216.949 210.403 217.146 210.189C217.583 209.719 216.204 203.272 214.601 196.508L195.081 201.499L196.082 204.996C196.082 204.996 185.931 213.101 185.001 214.332C184.081 215.558 183.934 218.808 185.066 218.891H185.061Z" fill="#ED5A25"/>
<path d="M185.181 217.583C190.177 216.16 210.452 210.89 215.498 209.861C215.536 209.85 215.547 209.883 215.503 209.894C210.584 211.415 190.265 216.521 185.197 217.67C185.088 217.692 185.071 217.615 185.175 217.588L185.181 217.583Z" fill="#263238"/>
<path d="M195.081 204.066C196.963 203.185 199.458 202.862 201.336 203.88C201.407 203.918 201.352 204.022 201.281 204.017C199.168 203.907 197.248 203.984 195.152 204.312C195.004 204.334 194.944 204.126 195.081 204.066Z" fill="#263238"/>
<path d="M193.872 205.297C195.754 204.416 198.25 204.093 200.127 205.111C200.198 205.149 200.143 205.253 200.072 205.248C197.959 205.138 196.039 205.215 193.943 205.543C193.795 205.565 193.735 205.357 193.872 205.297Z" fill="#263238"/>
<path d="M192.667 206.523C194.549 205.642 197.044 205.319 198.921 206.337C198.993 206.375 198.938 206.479 198.867 206.474C196.754 206.364 194.834 206.441 192.738 206.769C192.59 206.791 192.53 206.583 192.667 206.523Z" fill="#263238"/>
<path d="M191.463 207.754C193.346 206.873 195.841 206.55 197.718 207.568C197.789 207.606 197.735 207.71 197.664 207.705C195.551 207.596 193.63 207.672 191.535 208C191.387 208.022 191.327 207.814 191.463 207.754Z" fill="#263238"/>
<path d="M194.177 203.152L215.498 198.013C215.498 198.013 199.535 156.467 198.632 153.681C197.975 151.657 192.684 126.949 190.828 116.157C190.828 116.157 193.608 108.277 187.386 96.3799H163.543C163.543 96.3799 164.101 107.702 166.963 114.882C166.963 114.882 169.141 115.561 172.512 117.416C172.512 117.416 179.342 156.056 180.464 159.581C182.893 167.204 194.177 203.157 194.177 203.157V203.152Z" fill="#263238"/>
<path d="M176.308 138.096C175.449 133.543 174.6 128.99 173.747 124.437C173.506 123.151 173.238 121.87 172.97 120.59C172.707 119.32 172.472 118.018 172.105 116.776C172.083 116.693 171.952 116.715 171.957 116.797C172.023 117.958 172.242 119.118 172.395 120.272C172.543 121.394 172.718 122.516 172.909 123.633C173.303 125.925 173.73 128.213 174.163 130.5C175.033 135.064 175.897 139.645 176.959 144.165C177.555 146.71 178.114 149.265 178.743 151.804C178.754 151.859 178.836 151.832 178.825 151.777C178.026 147.208 177.167 142.644 176.308 138.085V138.096Z" fill="#37474F"/>
<path d="M171.285 111.73C171.608 110.937 171.351 110.017 171.203 109.213C171.017 108.189 170.836 107.166 170.65 106.143C170.223 103.833 169.758 101.535 169.26 99.2366C169.26 99.2147 169.216 99.2202 169.216 99.2421C169.441 101.081 169.687 102.909 169.955 104.742C170.223 106.581 170.579 108.414 170.803 110.258C170.875 110.855 170.825 112.031 169.961 112.037C169.233 112.037 168.79 110.948 168.554 110.411C167.859 108.813 167.575 107.051 167.219 105.355C166.798 103.325 166.453 101.278 166.097 99.2312C166.086 99.16 165.971 99.1819 165.977 99.253C166.103 101.283 166.365 103.297 166.694 105.306C167.006 107.215 167.307 109.224 168.106 110.997C168.407 111.664 168.828 112.485 169.599 112.693C169.714 112.726 169.824 112.732 169.933 112.732C169.999 113.339 170.092 113.946 170.218 114.548C170.349 115.167 170.481 115.813 170.705 116.404C170.738 116.486 170.853 116.453 170.847 116.382C170.82 115.758 170.688 115.128 170.568 114.516C170.453 113.908 170.294 113.312 170.114 112.721C170.634 112.644 171.072 112.239 171.28 111.73H171.285Z" fill="#37474F"/>
<path d="M175.279 117.69C174.092 117.137 172.778 116.726 171.498 116.436C170.206 116.141 169.002 116.02 167.689 115.917C167.64 115.917 167.634 115.993 167.678 115.999C168.953 116.196 173.993 117.438 175.252 117.75C175.285 117.761 175.307 117.706 175.274 117.69H175.279Z" fill="#37474F"/>
<path d="M206.38 182.888C205.242 179.856 204.098 176.824 202.954 173.798C200.689 167.789 198.352 161.808 196.092 155.794C193.864 149.856 192.907 143.541 191.692 137.33C191.074 134.167 190.461 130.998 189.831 127.835C189.213 124.7 188.463 121.559 188.097 118.379C187.735 115.271 188.206 112.157 187.932 109.049C187.686 106.269 186.936 103.554 185.738 101.048C185.432 100.408 185.098 99.7893 184.731 99.1873C184.687 99.1162 184.583 99.1873 184.622 99.253C186.012 101.852 186.953 104.665 187.374 107.593C187.582 109.043 187.642 110.504 187.604 111.971C187.56 113.541 187.451 115.107 187.527 116.677C187.675 119.813 188.409 122.905 189.005 125.975C189.618 129.11 190.242 132.241 190.855 135.376C191.479 138.539 192.102 141.702 192.721 144.871C193.323 147.952 193.941 151.027 194.937 154.004C195.939 156.992 197.11 159.926 198.226 162.875C199.375 165.901 200.519 168.933 201.679 171.959C203.983 177.979 206.243 184.026 208.656 190.007C208.935 190.702 209.22 191.397 209.527 192.081C209.565 192.174 209.713 192.103 209.68 192.01C208.7 188.929 207.502 185.909 206.363 182.888H206.38Z" fill="#37474F"/>
<path d="M213.051 193.548C212.427 193.625 211.803 193.811 211.196 193.964C210.583 194.123 209.964 194.27 209.352 194.434C208.148 194.752 206.938 195.058 205.734 195.381C203.283 196.032 200.831 196.689 198.374 197.335C196.995 197.702 195.627 198.112 194.264 198.539C194.209 198.555 194.231 198.632 194.286 198.621C199.26 197.641 204.169 196.262 209.056 194.911C209.756 194.719 210.451 194.517 211.146 194.314C211.803 194.123 212.482 193.958 213.111 193.685C213.199 193.646 213.133 193.532 213.056 193.542L213.051 193.548Z" fill="#37474F"/>
<path d="M158.379 81.1557C158.642 81.1666 159.862 81.2323 161.652 81.3253C162.308 80.2035 163.102 78.206 162.861 75.3385C162.817 74.8624 163.862 77.615 163.315 81.4129C166.774 81.5934 171.475 81.8288 175.584 82.0039C175.71 80.4005 175.896 78.9229 175.896 78.9229C176.006 80.0831 176.225 81.1338 176.482 82.0476C177.046 82.075 177.593 82.0914 178.124 82.1133C178.074 79.6179 178.616 75.2892 178.616 75.2892C178.906 78.3209 179.804 80.7562 180.46 82.2009C183.071 82.283 184.789 82.2884 184.68 82.1626C180.854 77.5274 183.82 74.9992 182.808 70.9825C181.593 66.1667 177.494 65.2966 177.713 61.7122C177.883 58.7954 178.397 53.5091 174.736 52.2723C174.736 52.2723 171.825 48.9013 167.064 50.5813C161.176 52.6554 163.233 61.7231 162.784 63.54C162.144 66.1394 160.875 67.0259 159.862 69.9865C158.828 72.9799 160.152 75.0211 160.251 77.0732C160.344 79.1254 157.722 81.1447 158.379 81.1666V81.1557Z" fill="#263238"/>
<path d="M184.811 81.5059C184.307 80.685 183.859 79.8204 183.612 78.9174C183.339 78.02 183.492 77.1115 183.7 76.1758C183.902 75.2454 184.143 74.2932 184.258 73.3027C184.362 72.3177 184.351 71.278 184.05 70.2874C183.766 69.2969 183.224 68.394 182.551 67.6552C181.883 66.9055 181.106 66.2926 180.362 65.6906C179.623 65.0832 178.884 64.4812 178.342 63.7151C177.784 62.9599 177.456 62.0405 177.368 61.0774C177.303 62.0405 177.533 63.0529 178.047 63.9066C178.556 64.7713 179.273 65.4717 179.99 66.1229C180.701 66.7796 181.423 67.4035 182.02 68.1149C182.611 68.8263 183.082 69.6253 183.317 70.4954C183.558 71.3655 183.607 72.2958 183.514 73.2207C183.432 74.151 183.235 75.0867 183.082 76.0554C183.01 76.5369 182.945 77.0294 182.945 77.5384C182.945 78.0473 183.06 78.5672 183.235 79.0323C183.607 79.9627 184.154 80.7835 184.805 81.5004L184.811 81.5059Z" fill="#263238"/>
<path d="M163.675 53.8264C163.194 54.9209 162.991 56.1139 162.789 57.2904C162.608 58.4725 162.482 59.6545 162.373 60.8366L162.198 62.5987C162.138 63.1897 162.05 63.7424 161.886 64.2787C161.568 65.3622 160.928 66.298 160.211 67.2502C159.861 67.7318 159.511 68.2353 159.215 68.7825C158.92 69.3297 158.685 69.9098 158.52 70.5063C158.373 71.1137 158.269 71.7102 158.214 72.3231C158.154 72.9361 158.17 73.5599 158.263 74.1728C158.351 74.7857 158.509 75.3658 158.635 75.9349C158.767 76.5041 158.843 77.0787 158.86 77.6533C158.914 78.7915 158.285 79.9079 157.344 80.6248C158.378 80.0502 159.161 78.9174 159.226 77.6587C159.259 77.0458 159.215 76.4384 159.122 75.8419C159.035 75.2454 158.903 74.6708 158.854 74.1017C158.745 72.9744 158.92 71.8033 159.221 70.7088C159.39 70.167 159.598 69.6471 159.877 69.1491C160.151 68.6512 160.485 68.186 160.835 67.7099C161.18 67.2283 161.541 66.7413 161.848 66.1995C162.154 65.6632 162.417 65.0886 162.586 64.4867C162.75 63.8847 162.827 63.2554 162.871 62.6643C162.92 62.0679 162.947 61.4714 162.975 60.8803C163.035 59.6928 163.073 58.5108 163.161 57.3342C163.238 56.1522 163.358 54.9756 163.675 53.8319V53.8264Z" fill="#263238"/>
<path d="M172.349 76.3617C168.809 81.2322 155.434 92.1551 149.436 91.4218C144.615 90.8308 132.663 83.4211 129.539 81.4018C126.906 79.6944 133.544 68.4267 135.903 69.4337C138.847 70.6868 147.669 79.3387 150.58 79.2895C151.724 79.2676 159.478 76.2742 168.82 72.5803C172.437 71.1465 174.456 73.4614 172.344 76.3672L172.349 76.3617Z" fill="#FFCEC7"/>
<path d="M125.2 81.1336C127.701 82.655 134.043 83.7713 135.674 83.4539C137.305 83.1365 139.56 72.4216 138.454 71.1192C137.349 69.8167 128.522 65.3403 125.556 65.7234C122.59 66.1064 122.606 79.5521 125.2 81.1336Z" fill="#FFCEC7"/>
<path d="M120.118 60.416L117.717 62.6071L126.223 71.9289L128.624 69.7378L120.118 60.416Z" fill="#455A64"/>
<path d="M121.584 45.5958C119.456 43.2646 116.55 41.8965 113.398 41.7542C110.24 41.6119 107.225 42.7009 104.899 44.8297C102.562 46.9584 101.2 49.8643 101.057 53.0164C100.915 56.1685 102.004 59.1893 104.133 61.515C106.256 63.8463 109.167 65.2144 112.319 65.3567C112.506 65.3621 112.686 65.3676 112.872 65.3676C115.822 65.3676 118.624 64.2841 120.818 62.2812C123.149 60.1524 124.512 57.2466 124.654 54.0945C124.665 53.9084 124.665 53.7169 124.665 53.5308C124.665 50.5812 123.582 47.7848 121.584 45.5958ZM120.107 56.9565C119.663 57.8923 119.04 58.7405 118.252 59.4629C116.676 60.9076 114.629 61.6464 112.489 61.5479C110.355 61.4494 108.39 60.53 106.946 58.9485C105.506 57.3724 104.768 55.3257 104.866 53.1915C104.959 51.0518 105.884 49.0872 107.465 47.648C108.992 46.247 110.924 45.5575 112.85 45.5575C115.023 45.5575 117.19 46.4386 118.766 48.1678C120.205 49.7439 120.944 51.7851 120.846 53.9193C120.796 54.9865 120.545 56.0153 120.107 56.9565Z" fill="#263238"/>
<path opacity="0.1" d="M120.846 53.9193C120.796 54.9864 120.545 56.0153 120.107 56.9565C119.664 57.8923 119.04 58.7405 118.252 59.4629C116.676 60.9076 114.629 61.6464 112.489 61.5479C110.355 61.4494 108.39 60.53 106.946 58.9485C105.506 57.3724 104.768 55.3257 104.866 53.1915C104.959 51.0518 105.884 49.0872 107.466 47.648C108.992 46.247 110.924 45.5575 112.85 45.5575C115.023 45.5575 117.19 46.4386 118.766 48.1678C120.205 49.7439 120.944 51.7851 120.846 53.9193Z" fill="white"/>
<path opacity="0.1" d="M120.846 53.9193C120.835 54.2094 120.802 54.4994 120.759 54.784C120.644 55.5392 120.425 56.2725 120.107 56.9565C119.664 57.8923 119.04 58.7405 118.252 59.4629C117.65 60.0101 116.983 60.4588 116.266 60.7981C115.576 61.1265 114.838 61.3509 114.071 61.4658C113.557 61.5424 113.026 61.5752 112.49 61.5479C111.948 61.5205 111.417 61.4439 110.903 61.318C110.772 61.2852 110.64 61.2469 110.509 61.2086C109.321 60.8474 108.232 60.2126 107.324 59.3315C107.193 59.2111 107.067 59.0798 106.946 58.9485C106.547 58.5107 106.208 58.04 105.923 57.5421C105.682 57.1316 105.48 56.6993 105.321 56.256C105.277 56.1302 105.233 56.0043 105.201 55.8784C104.949 55.0521 104.834 54.182 104.861 53.2955C104.861 53.2626 104.867 53.2243 104.867 53.1915C104.96 51.0518 105.885 49.0872 107.466 47.648C108.927 46.3072 110.755 45.6177 112.594 45.563C112.681 45.5575 112.764 45.5575 112.851 45.5575C113.634 45.5575 114.422 45.6724 115.177 45.9023C115.303 45.9406 115.429 45.9789 115.549 46.0281C115.998 46.1813 116.43 46.3838 116.846 46.6191C117.492 46.9967 118.094 47.4619 118.63 48.0256C118.679 48.0748 118.723 48.1186 118.767 48.1678C119.577 49.0598 120.168 50.0941 120.507 51.216C120.551 51.3418 120.584 51.4732 120.616 51.599C120.802 52.3487 120.885 53.1258 120.846 53.9193Z" fill="white"/>
<g opacity="0.3">
<path d="M118.629 48.0257L107.323 59.3317C107.191 59.2113 107.066 59.0799 106.945 58.9486C106.546 58.5108 106.206 58.0402 105.922 57.5422L116.845 46.6193C117.491 46.9969 118.093 47.462 118.629 48.0257Z" fill="#EBEBEB"/>
<path d="M112.592 45.563L104.859 53.2955C104.859 53.2627 104.865 53.2243 104.865 53.1915C104.958 51.0518 105.883 49.0872 107.464 47.648C108.925 46.3072 110.753 45.6177 112.592 45.563Z" fill="#EBEBEB"/>
<path d="M120.756 54.7841C120.641 55.5392 120.422 56.2726 120.104 56.9566L116.263 60.7982C115.573 61.1266 114.834 61.3509 114.068 61.4659L120.756 54.7841Z" fill="#EBEBEB"/>
<path d="M120.615 51.5991L110.902 61.3181C110.77 61.2853 110.639 61.247 110.508 61.2087L120.506 51.2161C120.55 51.3419 120.583 51.4733 120.615 51.5991Z" fill="#EBEBEB"/>
<path d="M115.548 46.0282L105.32 56.2561C105.276 56.1303 105.232 56.0044 105.199 55.8785L115.175 45.9023C115.301 45.9407 115.427 45.979 115.548 46.0282Z" fill="#EBEBEB"/>
</g>
<path d="M128.495 68.2122L124.861 71.5283L133.319 80.7976L136.954 77.4815L128.495 68.2122Z" fill="#263238"/>
<path d="M128.549 66.205C129.589 67.3597 127.63 67.9233 127.63 67.9233C127.63 67.9233 130.64 67.792 131.247 69.3954C131.833 70.9441 129.447 71.5406 129.277 71.5843C129.436 71.5789 132.205 71.5296 132.654 73.2042C133.119 74.9444 130.618 75.1359 130.459 75.1469C130.612 75.1907 132.61 75.7762 132.665 77.1279C132.752 79.4482 127.592 78.0856 126.01 79.098C126.01 79.098 127.422 81.9764 127.444 82.0695C127.444 82.0695 122.508 80.871 121.266 78.6602C120.609 77.4945 121.567 76.6518 121.567 76.6518C121.567 76.6518 119.936 76.4438 119.542 75.1359C119.339 74.4628 120.237 73.5435 120.237 73.5435C120.237 73.5435 118.934 73.3191 118.661 72.1371C118.436 71.1903 119.372 70.4187 119.372 70.4187C119.372 70.4187 118.223 69.6252 118.305 68.5855C118.469 66.4895 126.333 63.7424 128.56 66.2104L128.549 66.205Z" fill="#FFCEC7"/>
<path d="M119.493 70.2655C119.493 70.2655 119.449 70.2436 119.471 70.2272C121.835 68.6949 124.905 67.7318 127.74 67.8795C127.833 67.8795 127.866 68.0382 127.762 68.0492C124.812 68.4596 122.229 69.0561 119.493 70.2655Z" fill="#263238"/>
<path d="M120.187 73.538C120.16 73.5489 120.133 73.4997 120.165 73.4833C122.612 71.9127 126.097 70.9276 129.343 71.4804C129.452 71.4968 129.534 71.6281 129.403 71.6172C127.219 71.4147 122.639 72.438 120.182 73.538H120.187Z" fill="#263238"/>
<path d="M130.673 75.2618C127.543 74.8514 124.593 75.4862 121.66 76.5752C121.622 76.5916 121.605 76.5314 121.633 76.515C122.924 75.5902 124.867 75.0922 126.41 74.835C127.888 74.5832 129.272 74.6598 130.69 75.1578C130.744 75.1797 130.744 75.2782 130.673 75.2673V75.2618Z" fill="#263238"/>
<path d="M127.635 67.9234C128.215 67.9562 128.795 68.0273 129.353 68.1642C129.906 68.301 130.464 68.5144 130.842 68.892C131.028 69.0835 131.143 69.3188 131.154 69.576C131.165 69.8332 131.116 70.1069 130.995 70.3312C130.765 70.7854 130.245 71.081 129.753 71.1959L128.516 71.4859L129.78 71.6446C130.333 71.7103 130.908 71.8635 131.406 72.1043C131.904 72.3451 132.336 72.7172 132.462 73.2042C132.604 73.7077 132.451 74.2002 132.008 74.4629C131.581 74.742 130.99 74.8679 130.453 74.8952L128.948 74.9718L130.393 75.3877C130.782 75.5026 131.187 75.6723 131.542 75.8857C131.893 76.0991 132.21 76.3728 132.363 76.712C132.511 77.0404 132.484 77.4563 132.254 77.719C132.018 77.9981 131.603 78.1513 131.198 78.2607C130.366 78.4742 129.479 78.5125 128.604 78.5946C128.166 78.6329 127.723 78.6712 127.279 78.7259C126.847 78.7916 126.387 78.8572 126.01 79.098C126.404 78.8955 126.858 78.8846 127.29 78.8463C127.728 78.8244 128.171 78.8189 128.609 78.8135C129.49 78.808 130.382 78.7916 131.274 78.611C131.712 78.507 132.188 78.3811 132.56 78.0035C132.943 77.6095 132.987 76.9966 132.779 76.526C132.571 76.0444 132.183 75.7215 131.789 75.4753C131.389 75.229 130.973 75.043 130.519 74.9062L130.453 75.3987C131.088 75.3713 131.712 75.2673 132.292 74.9062C132.577 74.731 132.834 74.441 132.943 74.0908C133.058 73.7405 133.036 73.3903 132.943 73.062C132.746 72.3779 132.166 71.9346 131.608 71.672C131.033 71.4038 130.437 71.2615 129.813 71.1904L129.84 71.6391C130.464 71.4695 131.033 71.0919 131.318 70.4899C131.455 70.1889 131.493 69.8661 131.466 69.5487C131.438 69.2203 131.263 68.9084 131.028 68.695C130.552 68.2681 129.944 68.1204 129.375 68.0164C128.795 67.9179 128.21 67.8905 127.624 67.9234H127.635Z" fill="#263238"/>
<path d="M137.896 70.7361C137.896 70.7361 126.673 60.4042 125.37 65.6578C124.982 67.2174 125.255 74.0907 126.634 74.0634C128.418 74.0251 128.84 71.1356 128.818 69.2805C128.818 69.2805 131.674 72.4599 134.476 71.1302C136.233 70.2984 137.896 70.7361 137.896 70.7361Z" fill="#FFCEC7"/>
<path d="M125.507 65.231C125.26 65.8165 125.173 66.4513 125.102 67.0806C125.036 67.71 125.03 68.3502 125.047 68.985C125.102 70.2546 125.189 71.5078 125.468 72.7774C125.545 73.0948 125.632 73.4122 125.808 73.7296C125.895 73.8883 126.016 74.047 126.185 74.1674C126.267 74.2276 126.344 74.2714 126.47 74.3151C126.579 74.348 126.683 74.3589 126.782 74.3589C127.187 74.3589 127.537 74.1674 127.805 73.9376C128.068 73.6913 128.265 73.4013 128.418 73.1003C128.724 72.4928 128.867 71.8471 128.943 71.2068C129.031 70.5665 129.042 69.9263 129.031 69.286L128.642 69.4338C128.987 69.7949 129.354 70.1014 129.753 70.3805C130.147 70.6596 130.569 70.9058 131.012 71.0974C131.455 71.2889 131.926 71.4148 132.407 71.4695C132.883 71.5242 133.37 71.4914 133.83 71.3655C133.359 71.4257 132.889 71.4148 132.435 71.3217C131.98 71.2287 131.548 71.0591 131.132 70.8456C130.722 70.6377 130.333 70.3805 129.972 70.0905C129.616 69.8059 129.272 69.4775 128.982 69.1437L128.615 68.7114L128.593 69.286C128.571 69.9044 128.555 70.5282 128.451 71.1302C128.352 71.7322 128.221 72.3341 127.947 72.854C127.69 73.3575 127.258 73.8226 126.771 73.8281C126.344 73.8664 126.092 73.2261 125.95 72.6515C125.797 72.0605 125.698 71.4421 125.605 70.8238C125.512 70.2054 125.424 69.587 125.375 68.9631C125.293 67.7209 125.2 66.4568 125.501 65.231H125.507Z" fill="#263238"/>
<path d="M139.614 71.3326L135.865 86.2559C135.865 86.2559 145.343 92.0785 150.214 92.0402C155.079 92.0019 166.959 83.4157 171.053 79.0487C175.146 74.6817 175.474 69.7237 167.643 72.4983C159.812 75.2728 150.843 78.7751 150.597 78.8189C150.351 78.8627 139.614 71.3326 139.614 71.3326Z" fill="#EBEBEB"/>
<path d="M141.327 80.4387C141.584 79.3278 142.553 74.8787 142.673 73.7623C142.673 73.7295 142.618 73.724 142.613 73.7514C142.219 74.8185 141.135 79.2621 140.878 80.373C140.369 82.5948 139.817 84.8276 139.51 87.0986C139.505 87.1479 139.576 87.1697 139.592 87.1205C140.32 84.937 140.807 82.6769 141.332 80.4387H141.327Z" fill="#263238"/>
<path d="M162.318 101.322C162.318 101.322 172.185 103.658 190.873 102.044C190.873 102.044 183.567 78.715 177.679 72.4272C175.003 69.5652 172.382 70.0029 170.165 71.8417C169.613 72.3014 162.75 81.0134 162.17 84.0451C161.656 86.7266 163.839 89.7036 163.839 89.7036L162.323 101.316L162.318 101.322Z" fill="#EBEBEB"/>
<path d="M190.867 103.675C172.179 105.289 161.951 104.123 161.951 104.123L163.834 89.7035C163.834 89.7035 161.65 86.7265 162.165 84.0396C162.537 82.1078 166.75 75.3604 169.208 72.0112C169.645 71.4148 169.881 71.5953 169.881 71.5953C169.235 74.3042 166.488 79.4045 168.195 79.9408C169.667 80.4059 173.843 74.7748 175.736 70.8894C175.736 70.8894 176.781 71.2998 177.126 71.568C183.956 76.8434 190.862 103.669 190.862 103.669L190.867 103.675Z" fill="#ED5A25"/>
<path d="M176.612 72.5203C175.107 72.9307 174.516 76.2962 174.949 78.8464C175.381 81.3965 177.723 84.3735 179.556 83.7277C181.712 82.9671 181.619 79.7329 180.979 77.1444C180.448 74.9774 178.128 72.1044 176.612 72.5203Z" fill="#EBEBEB"/>
<path d="M165.743 77.626C165.136 78.4359 164.594 79.2787 164.074 80.1378C164.282 79.6508 164.484 79.1583 164.654 78.6493C164.66 78.6274 164.627 78.6165 164.621 78.6329C164.441 78.9886 164.26 79.3498 164.107 79.7165C163.97 80.0503 163.839 80.3841 163.718 80.7179C163.718 80.7234 163.713 80.7288 163.707 80.7343C163.127 81.7522 162.449 82.7865 162.159 83.9357C161.901 84.959 161.945 86.059 162.224 87.0768C162.367 87.6077 162.58 88.1111 162.837 88.5982C163.056 89.0195 163.297 89.4628 163.642 89.7966C163.45 90.8692 163.33 91.9637 163.187 93.0472C163.051 94.0979 162.859 95.1705 162.859 96.2322C162.859 96.2978 162.958 96.3088 162.974 96.2431C162.996 96.1665 163.018 96.0899 163.045 96.0187C163.045 96.0023 163.045 95.9914 163.034 95.9804C163.264 95.0063 163.368 93.983 163.499 92.9925C163.642 91.9637 163.899 89.8185 163.899 89.8076C163.899 89.7583 163.406 88.9101 163.215 88.4997C162.98 88.0017 162.793 87.4763 162.646 86.9455C162.372 85.9331 162.301 84.8824 162.585 83.8645C162.886 82.781 163.488 81.7412 164.036 80.7672C164.616 79.7274 165.218 78.6931 165.814 77.6643C165.836 77.626 165.776 77.5767 165.749 77.6151L165.743 77.626Z" fill="#263238"/>
<path d="M189.599 99.1107H162.609L162.735 98.1421H189.309C189.413 98.4759 189.506 98.7988 189.599 99.1107Z" fill="white"/>
<path d="M190.157 101.075H162.352L162.477 100.101H189.883C189.982 100.446 190.075 100.774 190.157 101.075Z" fill="white"/>
<path d="M168.196 79.9463C167.293 81.4293 166.724 83.1093 166.576 84.8167C166.522 85.2436 166.544 85.6704 166.544 86.0972C166.593 86.5186 166.604 86.9509 166.702 87.3668C166.828 88.2096 167.151 89.0086 167.49 89.7857L167.512 89.8294V89.8732C167.436 92.303 167.299 94.7272 167.189 97.1515C167.053 99.5758 166.91 102 166.713 104.424C166.713 101.995 166.779 99.5648 166.845 97.1351C166.938 94.7053 166.998 92.2811 167.129 89.8513L167.146 89.9443C166.795 89.1344 166.478 88.2972 166.352 87.4161C166.254 86.9838 166.254 86.535 166.221 86.0972C166.237 85.654 166.232 85.2107 166.303 84.7784C166.412 83.9028 166.62 83.0436 166.949 82.2337C167.277 81.4238 167.682 80.6413 168.202 79.9408L168.196 79.9463Z" fill="#263238"/>
<path d="M164.919 85.3069L146.715 86.449L148.202 110.147L166.405 109.005L164.919 85.3069Z" fill="#263238"/>
<path d="M151.514 87.5553L160.143 87.0049L159.976 84.3889L151.347 84.9394L151.514 87.5553Z" fill="#A6A6A6"/>
<path d="M153.3 84.8277L154.361 84.762L154.285 83.5526L156.868 83.3885L156.944 84.5924L158.006 84.5267L157.869 82.3323L153.146 82.6333L153.3 84.8277Z" fill="#A6A6A6"/>
<path d="M179.557 75.1854C182.736 82.7537 188.083 100.145 184.23 102.75C177.893 107.029 164.754 108.852 160.809 108.841C159.085 108.841 156.518 95.7726 158.275 95.2253C160.387 94.5686 174.21 93.7697 174.44 92.6697C174.572 92.0459 174.5 86.5133 175.026 79.5633C175.633 71.5025 178.041 71.5791 179.557 75.1854Z" fill="#FFCEC7"/>
<path d="M144.546 94.8478C143.982 96.1995 145.142 97.1791 145.142 97.1791C145.142 97.1791 144.168 97.8248 143.933 98.9248C143.665 100.183 145.52 101.158 145.52 101.158C145.52 101.158 144.672 102.017 144.54 103.204C144.403 104.435 146.133 105.683 146.133 105.683C146.133 105.683 145.782 106.92 146.401 108.025C147.462 109.919 150.773 110.072 152.875 110.198C154.976 110.318 161.056 108.693 162.243 108.501L163.135 95.012C163.135 95.012 153.86 91.7888 151.364 91.9967C149.263 92.1718 145.175 93.3374 144.54 94.8533L144.546 94.8478Z" fill="#FFCEC7"/>
<path d="M145.246 96.9656C147.435 96.2433 149.717 96.2049 151.994 96.0408C152.043 96.0408 152.048 96.1174 151.994 96.1174C149.728 96.2542 147.517 96.8452 145.263 97.0696C145.202 97.0751 145.181 96.982 145.241 96.9601L145.246 96.9656Z" fill="#263238"/>
<path d="M145.57 100.982C146.068 100.835 146.615 100.851 147.135 100.84C147.693 100.829 148.246 100.824 148.804 100.829C149.92 100.84 151.031 100.878 152.148 100.944C152.197 100.944 152.202 101.021 152.148 101.021C151.037 101.01 149.926 101.021 148.815 101.053C148.262 101.07 147.704 101.097 147.151 101.125C146.637 101.152 146.09 101.218 145.581 101.125C145.504 101.114 145.493 100.993 145.57 100.971V100.982Z" fill="#263238"/>
<path d="M146.176 105.683C146.603 105.535 147.144 105.617 147.593 105.628C148.102 105.645 148.611 105.656 149.114 105.667C150.132 105.689 151.145 105.705 152.163 105.689C152.212 105.689 152.217 105.765 152.163 105.765C151.128 105.787 150.099 105.82 149.065 105.831C148.556 105.836 148.053 105.842 147.544 105.842C147.112 105.842 146.575 105.891 146.165 105.727C146.143 105.716 146.148 105.683 146.165 105.678L146.176 105.683Z" fill="#263238"/>
<path d="M163.053 94.3224L165.34 109.246C165.34 109.246 181.522 106.405 185.041 102.454C188.198 98.9082 181.861 79.7658 180.247 75.9406C178.627 72.1153 176.367 70.9771 175.311 76.455C174.255 81.9328 174.102 92.303 174.063 92.4617C174.025 92.615 163.053 94.3169 163.053 94.3169V94.3224Z" fill="#EBEBEB"/>
<path d="M167.934 100.917C167.781 99.7839 167.102 95.2856 166.812 94.1966C166.801 94.1637 166.752 94.1801 166.752 94.2075C166.768 95.3458 167.332 99.8879 167.491 101.015C167.808 103.275 168.087 105.557 168.613 107.79C168.624 107.834 168.7 107.828 168.7 107.785C168.602 105.486 168.251 103.199 167.945 100.917H167.934Z" fill="#263238"/>
<path d="M174.462 86.1903C174.571 84.0342 174.73 81.8836 174.883 79.7329C174.883 79.6946 174.818 79.6891 174.812 79.7274C174.626 80.9204 174.478 82.1189 174.364 83.3173C174.32 82.6716 174.292 82.0258 174.281 81.3801C174.281 81.3309 174.21 81.3363 174.21 81.3801C174.15 82.2174 174.21 83.0547 174.314 83.881C174.249 84.6088 174.188 85.3421 174.145 86.0699C174.079 87.1371 173.893 91.8652 173.909 92.4015C172.032 92.5712 170.319 92.9323 168.453 93.2169C167.539 93.3537 166.631 93.5015 165.723 93.6547C164.825 93.8079 163.769 93.8681 162.932 94.1308C162.877 94.1472 162.981 94.3989 163.008 94.5193C163.019 94.5741 163.101 94.585 163.096 94.5303C163.096 94.5303 163.09 94.4154 163.09 94.3716C163.528 94.3606 165.34 94.0706 165.805 93.9995C166.719 93.8627 167.627 93.7258 168.541 93.5836C170.391 93.3045 174.238 92.7189 174.238 92.6916C174.309 92.2045 174.407 87.2739 174.468 86.1794L174.462 86.1903Z" fill="#263238"/>
<path d="M175.254 71.6775C175.145 72.181 172.775 75.4754 170.477 75.3933C169.727 75.3659 169.7 71.2671 169.7 71.2671L169.629 70.9661L168.633 66.7414L173.574 63.4908L174.291 63.0585C174.291 63.0585 174.488 64.235 174.718 65.6962C174.729 65.7618 174.74 65.833 174.751 65.9041C174.767 65.9862 174.784 66.0628 174.789 66.1394C174.828 66.3583 174.866 66.5827 174.893 66.8016C174.921 66.9712 174.942 67.1354 174.964 67.316C174.992 67.4966 175.008 67.6717 175.036 67.8468C175.238 69.6199 175.304 71.4531 175.254 71.6666V71.6775Z" fill="#FFCEC7"/>
<path d="M174.712 65.6962C173.536 69.0836 170.86 70.49 169.623 70.9661L168.627 66.7414L173.569 63.4908L174.285 63.0585C174.285 63.0585 174.482 64.235 174.712 65.6962Z" fill="#263238"/>
<path d="M162.356 58.9158C160.184 66.2215 164.315 68.3447 165.886 68.8154C167.314 69.2367 172.239 70.5009 175.156 63.4579C178.073 56.4149 175.364 53.0986 172.141 51.9549C168.923 50.8112 164.523 51.6101 162.351 58.9158H162.356Z" fill="#FFCEC7"/>
<path d="M163.764 57.958C163.944 57.9854 164.108 57.9799 164.289 57.9909C164.492 58.0018 164.65 58.0292 164.831 57.9197C164.929 57.8595 164.968 57.7008 164.918 57.6023C164.809 57.3725 164.563 57.2959 164.322 57.274C164.059 57.2521 163.851 57.3014 163.632 57.4491C163.419 57.5914 163.534 57.9252 163.764 57.9635V57.958Z" fill="#263238"/>
<path d="M168.808 59.3207C168.638 59.2551 168.496 59.162 168.337 59.0799C168.156 58.9869 168.009 58.9267 167.905 58.7461C167.85 58.6476 167.905 58.4889 167.992 58.4287C168.206 58.2864 168.452 58.3466 168.671 58.4506C168.912 58.5655 169.065 58.7133 169.174 58.9486C169.284 59.1785 169.021 59.4083 168.797 59.3207H168.808Z" fill="#263238"/>
<path d="M167.15 60.8092C167.15 60.8092 167.183 60.842 167.177 60.8639C167.013 61.3564 166.909 61.9475 167.309 62.2484C167.32 62.2594 167.309 62.2813 167.298 62.2758C166.772 62.035 166.92 61.2525 167.156 60.8092H167.15Z" fill="#263238"/>
<path d="M167.747 60.4206C168.562 60.6012 168.146 62.2211 167.391 62.0569C166.647 61.8927 167.063 60.2729 167.747 60.4206Z" fill="#263238"/>
<path d="M168.042 60.5903C168.163 60.7162 168.256 60.9186 168.425 60.9788C168.617 61.05 168.809 60.9186 168.984 60.7873C169 60.7764 169.011 60.7873 169.006 60.8147C168.929 61.1266 168.726 61.4166 168.382 61.3783C168.064 61.34 167.917 61.0117 167.922 60.6779C167.922 60.6177 167.993 60.5411 168.042 60.5958V60.5903Z" fill="#263238"/>
<path d="M164.381 59.9829C164.381 59.9829 164.337 59.9993 164.332 60.0157C164.222 60.5247 164.014 61.0883 163.516 61.1376C163.5 61.1376 163.495 61.1649 163.516 61.1649C164.091 61.2251 164.365 60.4754 164.387 59.9774L164.381 59.9829Z" fill="#263238"/>
<path d="M164.065 59.3481C163.271 59.0854 162.8 60.6943 163.539 60.9351C164.262 61.1759 164.732 59.567 164.065 59.3481Z" fill="#263238"/>
<path d="M163.697 59.3535C163.544 59.4028 163.374 59.5177 163.221 59.4848C163.041 59.4465 162.964 59.2331 162.898 59.0361C162.893 59.0142 162.876 59.0252 162.871 59.047C162.772 59.3535 162.783 59.7037 163.062 59.846C163.314 59.9774 163.593 59.7694 163.752 59.4848C163.785 59.4301 163.763 59.3316 163.703 59.3535H163.697Z" fill="#263238"/>
<path d="M166.149 64.9463C166.001 65.0393 165.848 65.1761 165.662 65.1543C165.481 65.1324 165.289 65.0065 165.142 64.9135C165.125 64.9025 165.109 64.9135 165.114 64.9354C165.207 65.1597 165.459 65.3403 165.7 65.3458C165.941 65.3513 166.094 65.1761 166.192 64.9791C166.209 64.9518 166.171 64.9299 166.149 64.9463Z" fill="#263238"/>
<path d="M164.43 63.6111C164.43 63.6111 164.616 64.1802 165.021 64.5031C165.168 64.6235 165.349 64.711 165.557 64.722C165.989 64.7494 166.121 64.3937 166.153 64.0544C166.181 63.7807 166.137 63.5181 166.137 63.5181C166.137 63.5181 165.376 63.8628 164.43 63.6111Z" fill="#263238"/>
<path d="M165.021 64.5031C165.169 64.6235 165.35 64.7111 165.558 64.722C165.99 64.7494 166.121 64.3937 166.154 64.0544C165.716 63.9559 165.197 64.1037 165.021 64.5031Z" fill="#FF97B8"/>
<path d="M164.54 62.5713C164.54 62.5713 164.234 63.2937 164.141 63.6439C164.13 63.6767 164.212 63.715 164.332 63.7533C164.332 63.7533 164.338 63.7588 164.349 63.7533C164.945 64.016 165.629 63.9722 166.149 63.5673C166.182 63.5399 166.149 63.4907 166.111 63.5016C165.552 63.7205 165.016 63.6658 164.458 63.529C164.458 63.425 165.022 62.3141 164.967 62.2922C164.781 62.2211 164.365 62.2539 164.119 62.2594C164.71 60.738 165.542 59.3262 166.105 57.8048C166.127 57.7501 166.05 57.7118 166.018 57.7556C165.044 59.1729 164.321 60.9077 163.67 62.4619C163.588 62.6534 164.387 62.5877 164.54 62.5658V62.5713Z" fill="#263238"/>
<path d="M174.702 63.2773C172.951 62.9161 173.553 60.1635 173.553 60.1635C173.553 60.1635 171.61 59.556 172.147 56.3273C172.147 56.3273 170.778 58.0566 168.004 57.8705C167.418 57.8322 169.64 56.7651 169.64 56.7651C169.64 56.7651 166.909 58.3466 162.838 56.6502C162.548 56.5298 164.146 52.1902 167.802 51.3803C171.457 50.5649 174.27 52.0753 175.879 54.6145C175.879 54.6145 178.079 56.2617 177.854 58.6312C177.635 61.0008 175.375 63.4141 174.691 63.2773H174.702Z" fill="#263238"/>
<path d="M174.374 66.1503C174.243 66.1722 174.123 66.1777 174.008 66.1667C173.876 66.1667 173.756 66.1394 173.652 66.101C173.488 66.0518 173.357 65.9697 173.253 65.8712C173.154 65.7891 173.078 65.6906 173.017 65.5976C172.864 65.3513 172.82 65.1215 172.82 65.1215L173.641 63.2116C173.641 63.2116 175.754 61.2197 176.684 62.0132C177.625 62.8121 175.704 65.9369 174.369 66.1448L174.374 66.1503Z" fill="#FFCEC7"/>
<path d="M176.115 62.9052C176.115 62.9052 176.132 62.9381 176.115 62.9381C175.174 63.1132 174.55 63.8246 174.058 64.5962C174.38 64.3281 174.769 64.2241 175.141 64.6181C175.163 64.64 175.13 64.6674 175.108 64.6619C174.769 64.5141 174.495 64.5196 174.2 64.7549C173.986 64.9246 173.817 65.1544 173.647 65.3623C173.592 65.4335 173.461 65.3623 173.505 65.2803C173.505 65.2748 173.51 65.2693 173.516 65.2638C173.724 64.1475 174.906 62.7739 176.115 62.9052Z" fill="#263238"/>
<path d="M174.336 65.8166C174.26 65.9971 174.052 66.0792 173.871 66.0026C173.69 65.926 173.608 65.7181 173.685 65.5375C173.762 65.3569 173.969 65.2748 174.15 65.3514C174.331 65.428 174.413 65.636 174.336 65.8166Z" fill="white"/>
<path d="M175.152 65.4389C175.097 65.5648 174.949 65.625 174.823 65.5703C174.698 65.5156 174.637 65.3678 174.692 65.2419C174.747 65.1161 174.895 65.0559 175.02 65.1106C175.146 65.1653 175.207 65.3131 175.152 65.4389Z" fill="white"/>
<path d="M162.892 54.3572C162.892 54.3572 166.887 46.2143 174.176 49.7221C181.466 53.2299 177.597 61.4331 177.597 61.4331L162.887 54.3572H162.892Z" fill="#ED5A25"/>
<path d="M178.431 61.1053L162.631 53.5045L162.073 54.6634L177.874 62.2642L178.431 61.1053Z" fill="#ED5A25"/>
<path d="M170.406 57.2575L167.117 55.676L171.747 48.0365L175.036 49.618L170.406 57.2575Z" fill="#ED5A25"/>
<path opacity="0.1" d="M170.406 57.2575L167.117 55.676L171.747 48.0365L175.036 49.618L170.406 57.2575Z" fill="black"/>
<path d="M33.156 65.3131C25.3305 69.7402 11.0913 83.2078 12.1365 86.9509C14.2434 94.5029 23.6997 104.911 26.217 106.958C27.6782 108.146 39.3782 98.6564 38.0046 97.1843C36.3957 95.466 26.414 86.152 26.3921 85.2326C26.3703 84.5321 32.0725 77.0459 36.2808 70.676C41.1567 63.2883 36.8937 63.2062 33.1615 65.3131H33.156Z" fill="#FBB9AF"/>
<path d="M36.4557 96.1828C36.4557 96.1828 41.2824 99.2857 44.3414 101.464C46.0488 102.679 48.7905 105.026 49.6333 106.487C50.8974 108.682 54.7883 118.663 52.3859 119.659C50.2133 120.562 47.9587 111.56 47.9587 111.56C47.9587 111.56 51.0342 120.442 48.2214 121.044C45.4086 121.646 44.2156 111.139 44.2156 111.139C44.2156 111.139 47.1707 120.333 44.1718 120.497C41.9062 120.623 40.2864 111.166 40.2864 111.166C40.2864 111.166 42.7709 119.085 40.4451 119.315C37.8731 119.566 35.8319 110.931 35.8319 110.931C29.8177 110.515 26.2387 108.124 25.1224 105.043C24.898 104.424 36.4502 96.1774 36.4502 96.1774L36.4557 96.1828Z" fill="#FBB9AF"/>
<path d="M47.0931 108.425C47.4926 109.453 47.9031 110.493 48.2095 111.555C48.516 112.617 48.7841 113.689 48.9921 114.778C49.4955 117.443 49.397 119.189 49.3915 119.079C49.2602 116.513 48.2205 112.693 47.914 111.631C47.6075 110.57 47.3558 109.497 47.0494 108.436C47.0439 108.408 47.0822 108.403 47.0877 108.425H47.0931Z" fill="#263238"/>
<path d="M43.2405 109.459C43.6947 110.794 44.1927 112.108 44.5867 113.465C44.9807 114.816 45.2324 116.13 45.5279 117.509C45.5498 117.613 45.4842 117.591 45.4568 117.487C45.1066 116.124 44.6742 114.893 44.3076 113.536C43.9409 112.184 43.6235 110.805 43.2076 109.47C43.2022 109.448 43.235 109.442 43.2405 109.459Z" fill="#263238"/>
<path d="M39.7716 109.754C40.5706 111.763 40.9919 113.913 41.3586 116.037C41.375 116.141 41.2984 116.102 41.271 115.998C40.784 113.902 40.4119 112.25 39.7004 109.782C39.6895 109.743 39.7552 109.711 39.7716 109.754Z" fill="#263238"/>
<path d="M35.6245 94.5686L23.9519 106.586C23.9519 106.586 10.7798 91.006 11.5842 86.0152C12.3941 81.0189 25.2598 69.2423 32.2918 65.3459C39.3184 61.4496 39.9203 65.4389 36.7901 70.7034C33.6599 75.9679 26.8085 85.2545 26.9453 85.5117C27.0821 85.7689 35.6245 94.5686 35.6245 94.5686Z" fill="#EBEBEB"/>
<path d="M27.6996 98.2187C28.5369 97.4361 29.3523 96.6317 30.1677 95.8273C30.5617 95.4442 30.9557 95.0611 31.3388 94.6616C31.7492 94.2348 32.2034 93.8244 32.581 93.3701C32.6083 93.3373 32.57 93.299 32.5372 93.3209C32.0611 93.6711 31.6288 94.098 31.1746 94.481C30.7532 94.8367 30.3482 95.2089 29.9433 95.5755C29.0951 96.3417 28.2414 97.1078 27.4096 97.8958C25.7405 99.4719 24.1261 101.092 22.5227 102.733C22.4844 102.772 22.5391 102.832 22.5829 102.799C24.3177 101.3 26.0305 99.7838 27.7051 98.2132L27.6996 98.2187Z" fill="#263238"/>
<path d="M36.7842 70.7034C33.6595 75.9733 26.8026 85.26 26.9394 85.5117C27.0762 85.7744 35.6186 94.5685 35.6186 94.5685L23.946 106.591C23.946 106.591 17.8497 99.3842 14.2051 93.1949L37.7638 64.0106C39.203 64.7932 38.6777 67.513 36.7787 70.6979L36.7842 70.7034Z" fill="#C7C7C7"/>
<path d="M13.9359 182.422C13.9359 182.422 13.3887 204.099 13.3887 204.115C13.3996 208.121 13.4817 211.634 13.6951 213.446C13.6951 213.456 13.6951 213.467 13.6951 213.473C13.7772 214.157 13.8702 214.595 13.9961 214.71C14.0071 214.721 14.0125 214.732 14.018 214.737C15.211 215.541 47.2355 216.373 48.3628 216.023C49.4956 215.684 48.5872 212.439 47.3723 211.415C46.1465 210.392 34.0306 204.591 34.0306 204.591L34.3808 182.926L13.9304 182.422H13.9359Z" fill="#FBB9AF"/>
<path d="M13.3512 199.814C13.3512 199.814 13.3895 204.099 13.3895 204.115C13.4004 208.121 13.4825 211.634 13.6959 213.446C13.6959 213.457 13.6959 213.467 13.6959 213.473C13.8163 214.146 13.9203 214.595 13.9969 214.71C14.0079 214.721 14.0133 214.732 14.0188 214.737C15.2118 215.542 47.2363 216.373 48.3636 216.023C49.4964 215.684 48.588 212.439 47.3731 211.415C46.1473 210.392 34.0314 204.591 34.0314 204.591L34.0533 200.224L13.3457 199.814H13.3512Z" fill="white"/>
<path d="M36.002 204.602C33.8678 204.252 31.2794 204.635 29.6869 206.178C29.6267 206.238 29.7088 206.326 29.7799 206.304C31.8594 205.598 33.8076 205.133 36.002 204.87C36.1553 204.854 36.1553 204.629 36.002 204.602Z" fill="#263238"/>
<path d="M37.5567 205.494C35.4225 205.144 32.834 205.527 31.2416 207.07C31.1814 207.13 31.2635 207.218 31.3346 207.196C33.4141 206.49 35.3623 206.025 37.5567 205.762C37.71 205.746 37.71 205.521 37.5567 205.494Z" fill="#263238"/>
<path d="M39.1056 206.386C36.9713 206.036 34.3829 206.419 32.7904 207.962C32.7302 208.022 32.8123 208.11 32.8834 208.088C34.963 207.382 36.9111 206.917 39.1056 206.654C39.2588 206.638 39.2588 206.414 39.1056 206.386Z" fill="#263238"/>
<path d="M48.3702 216.028C47.2429 216.379 15.2184 215.547 14.02 214.737C13.5603 214.436 13.407 209.768 13.3906 204.115C13.3906 204.055 13.3906 203.995 13.3906 203.94L34.0544 204.246L34.038 204.597C34.038 204.597 46.1539 210.397 47.3797 211.421C48.5946 212.444 49.4975 215.684 48.3702 216.028Z" fill="#37474F"/>
<path d="M13.3906 203.934V204.115C13.4125 209.763 13.5603 214.436 14.0254 214.737C14.5672 215.104 21.5062 215.476 29.0089 215.744C37.9836 216.061 47.7573 216.22 48.3757 216.028C49.503 215.684 48.5946 212.439 47.3797 211.415C46.1539 210.392 34.0435 204.591 34.0435 204.591L34.0599 204.246L27.1701 204.142L13.3906 203.934Z" fill="#ED5A25"/>
<path d="M48.0409 214.775C42.6451 214.502 20.8649 213.911 15.5074 214.053C15.4637 214.053 15.4637 214.086 15.5074 214.086C20.8485 214.474 42.6341 214.885 48.0354 214.863C48.1503 214.863 48.1503 214.781 48.0354 214.775H48.0409Z" fill="#263238"/>
<path opacity="0.1" d="M27.1641 204.142C27.6675 207.601 28.4391 212.701 29.0028 215.744C37.9775 216.061 47.7512 216.22 48.3696 216.029C49.4969 215.684 48.5885 212.439 47.3736 211.415C46.1478 210.392 34.0374 204.591 34.0374 204.591L34.0538 204.246L27.1641 204.142Z" fill="black"/>
<path d="M11.5234 204.23L34.6991 204.449C34.6991 204.449 36.0124 166.717 36.1109 154.136C36.2259 139.765 35.4105 96.6536 35.4105 96.6536H18.0848C18.0848 96.6536 13.4333 106.154 16.0929 116.847L16.8262 155.307L11.5234 204.23Z" fill="#37474F"/>
<path d="M13.2427 200.175C13.8392 200.066 14.4794 200.071 15.0869 200.027C15.7709 199.978 16.455 199.929 17.139 199.896C18.4579 199.841 19.7767 199.819 21.0956 199.814C23.7551 199.803 26.4202 199.825 29.0798 199.907C30.5956 199.956 32.106 200.016 33.6164 200.098C33.6766 200.098 33.6711 200.191 33.6164 200.191C30.9787 200.29 28.341 200.328 25.6978 200.378C23.0656 200.427 20.4225 200.482 17.7848 200.427C17.0296 200.41 16.2744 200.405 15.5137 200.361C14.7695 200.317 13.9869 200.361 13.2481 200.252C13.2044 200.246 13.1879 200.17 13.2372 200.164L13.2427 200.175Z" fill="#263238"/>
<path d="M33.0313 179.347C33.2995 173.109 33.5019 166.865 33.6716 160.621C34.0163 148.132 34.0984 135.644 33.9397 123.156C33.8522 116.152 33.6661 109.142 33.4527 102.142C33.4527 102.06 33.5731 102.066 33.5786 102.142C34.2407 114.68 34.4924 127.244 34.5089 139.798C34.5253 152.286 34.2626 164.78 33.6442 177.257C33.2995 184.261 32.8726 191.266 32.2105 198.243C32.205 198.303 32.1119 198.303 32.1174 198.243C32.3965 191.945 32.7577 185.646 33.0258 179.342L33.0313 179.347Z" fill="#263238"/>
<path d="M38.7277 185.865C38.7277 185.865 38.9029 206.819 38.9029 206.83C38.9138 210.835 38.9959 214.349 39.2093 216.16C39.2093 216.171 39.2093 216.182 39.2093 216.187C39.2914 216.871 39.3844 217.309 39.5103 217.424C39.5212 217.435 39.5267 217.446 39.5322 217.451C40.7252 218.256 72.7497 219.088 73.877 218.737C75.0098 218.398 74.1014 215.153 72.8865 214.13C71.6607 213.106 59.5448 207.306 59.5448 207.306L59.1672 186.363L38.7168 185.859L38.7277 185.865Z" fill="#FBB9AF"/>
<path d="M38.8688 202.528C38.8688 202.528 38.9071 206.813 38.9071 206.83C38.918 210.835 39.0001 214.349 39.2135 216.16C39.2135 216.171 39.2135 216.182 39.2135 216.187C39.3339 216.86 39.4379 217.309 39.5145 217.424C39.5254 217.435 39.5309 217.446 39.5364 217.451C40.7294 218.256 72.7539 219.088 73.8812 218.737C75.014 218.398 74.1056 215.153 72.8907 214.13C71.6649 213.106 59.549 207.306 59.549 207.306L59.5709 202.939L38.8633 202.528H38.8688Z" fill="white"/>
<path d="M61.5157 207.322C59.3815 206.972 56.793 207.355 55.2006 208.898C55.1404 208.958 55.2225 209.046 55.2936 209.024C57.3731 208.318 59.3213 207.853 61.5157 207.59C61.6689 207.574 61.6689 207.349 61.5157 207.322Z" fill="#263238"/>
<path d="M63.0704 208.214C60.9362 207.864 58.3477 208.247 56.7553 209.79C56.6951 209.85 56.7771 209.938 56.8483 209.916C58.9278 209.21 60.876 208.745 63.0704 208.482C63.2236 208.466 63.2236 208.241 63.0704 208.214Z" fill="#263238"/>
<path d="M64.6231 209.106C62.4889 208.756 59.9005 209.139 58.308 210.682C58.2478 210.742 58.3299 210.83 58.401 210.808C60.4805 210.102 62.4287 209.637 64.6231 209.374C64.7764 209.358 64.7764 209.133 64.6231 209.106Z" fill="#263238"/>
<path d="M73.8878 218.743C72.7605 219.093 40.736 218.261 39.5375 217.451C39.0778 217.15 38.9246 212.477 38.9082 206.829C38.9082 206.769 38.9082 206.709 38.9082 206.654L59.572 206.961L59.5556 207.311C59.5556 207.311 71.6715 213.112 72.8973 214.135C74.1122 215.158 75.0151 218.398 73.8878 218.743Z" fill="#ED5A25"/>
<path d="M73.5546 217.495C68.1588 217.221 46.3786 216.63 41.0211 216.773C40.9773 216.773 40.9773 216.806 41.0211 216.806C46.3622 217.194 68.1478 217.605 73.5491 217.583C73.664 217.583 73.664 217.501 73.5491 217.495H73.5546Z" fill="#263238"/>
<path d="M28.1384 118.833C28.1384 118.833 37.6439 148.795 37.8191 154.305C37.9668 159.001 37.3648 207.18 37.3648 207.18L61.4325 207.322C61.4325 207.322 59.4022 158.191 59.0246 153.298C58.3242 144.149 50.3071 119.03 44.5775 96.6591H18.6328C18.6328 96.6591 18.8572 108.375 24.1873 116.852C24.1873 116.852 26.6006 117.969 28.1438 118.839L28.1384 118.833Z" fill="#37474F"/>
<path d="M38.6463 202.742C41.4263 202.66 44.3102 202.577 47.0902 202.649C49.8483 202.72 52.6118 202.758 55.3645 202.922C56.9241 203.015 58.4837 203.07 60.0434 203.223C60.0926 203.223 60.0926 203.305 60.0434 203.305C57.2634 203.469 54.4779 203.437 51.6925 203.409C48.9289 203.382 46.1708 203.355 43.4127 203.229C41.8531 203.158 40.2935 203.081 38.7338 202.971C38.5642 202.961 38.4766 202.747 38.6463 202.742Z" fill="#263238"/>
<path d="M43.905 110.772C44.7642 113.635 45.4866 116.54 46.2527 119.43C47.0243 122.341 47.7959 125.252 48.5675 128.169C50.0505 133.806 51.5172 139.453 52.6281 145.177C53.7499 150.94 54.423 156.741 54.5543 162.607C54.6802 168.572 54.5543 174.548 54.516 180.513C54.4777 186.51 54.423 192.508 54.319 198.506C54.3081 199.25 54.2917 200 54.2643 200.744C54.2643 200.815 54.1549 200.815 54.1549 200.744C53.9962 194.779 54.0782 188.798 54.1001 182.833C54.122 176.863 54.1986 170.892 54.1494 164.927C54.1001 158.99 53.6459 153.101 52.6171 147.251C51.6102 141.511 50.1983 135.847 48.7317 130.21C47.8944 126.993 47.0517 123.78 46.2144 120.563C45.3716 117.323 44.4742 114.094 43.7354 110.827C43.708 110.712 43.8777 110.674 43.9105 110.783L43.905 110.772Z" fill="#263238"/>
<path d="M34.0925 119.413C32.8941 119.392 31.7011 119.309 30.519 119.091C29.3261 118.866 28.2152 118.472 27.055 118.133C25.9551 117.81 24.7894 117.761 23.6621 117.58C22.5184 117.394 21.3801 117.099 20.3349 116.59C20.2856 116.568 20.2419 116.639 20.2911 116.666C21.3254 117.197 22.3706 117.701 23.4815 118.051C24.6198 118.412 25.8128 118.461 26.9729 118.746C28.1659 119.036 29.3096 119.424 30.5355 119.567C31.723 119.703 32.9214 119.698 34.1035 119.506C34.1527 119.501 34.1363 119.43 34.0925 119.424V119.413Z" fill="#263238"/>
<path d="M35.6085 143.251C35.3786 142.365 35.1652 141.473 34.9244 140.592C34.4374 138.802 33.9449 137.013 33.4031 135.24C32.3305 131.715 31.3126 128.169 30.1799 124.661C29.5341 122.675 28.9595 120.661 28.1988 118.713C28.1824 118.664 28.1113 118.686 28.1222 118.735C28.4998 120.552 29.0416 122.33 29.5232 124.125C30.0047 125.915 30.5191 127.699 31.039 129.477C32.0678 133.018 33.0693 136.564 34.1911 140.077C34.5031 141.062 34.8259 142.042 35.1707 143.021C35.5154 144.017 35.7891 145.046 36.205 146.02C36.2269 146.075 36.298 146.053 36.2925 145.993C36.1338 145.068 35.8493 144.165 35.614 143.257L35.6085 143.251Z" fill="#263238"/>
<path d="M42.5797 69.9755C40.8231 70.0083 38.1963 66.5443 37.5123 64.2294C37.4685 64.0707 38.0102 62.626 38.5848 60.8366C38.9296 59.7475 39.2908 58.5327 39.537 57.3944L46.279 60.6724C46.279 60.6724 45.0642 62.8996 44.6428 64.8807C44.61 65.0448 44.5935 65.2035 44.5881 65.3568C44.5881 65.3786 44.5881 65.406 44.5826 65.4334C44.5333 66.3473 44.2761 69.9372 42.5797 69.97V69.9755Z" fill="#FBB9AF"/>
<path d="M44.5891 65.3623C44.5891 65.3623 44.5891 65.4115 44.5836 65.4443C44.3538 65.4279 44.1076 65.3896 43.8394 65.324C39.6858 64.2459 39.6092 59.3153 39.7296 57.4984L46.2801 60.6779C46.2801 60.6779 45.0597 62.9051 44.6384 64.8862C44.6055 65.0558 44.5891 65.2145 44.5891 65.3623Z" fill="#263238"/>
<path d="M39.4499 48.8137C38.2898 51.2544 38.5305 58.8336 40.1066 60.7545C42.3831 63.5344 46.6625 64.41 49.1634 61.5425C51.5877 58.768 51.0952 48.8903 49.2893 47.0899C46.6297 44.4412 41.1682 45.2128 39.4554 48.8137H39.4499Z" fill="#FBB9AF"/>
<path d="M46.2635 54.39C46.2635 54.39 46.2251 54.4174 46.2251 54.4338C46.247 54.9427 46.1868 55.5337 45.7272 55.7088C45.7107 55.7088 45.7162 55.7417 45.7272 55.7362C46.2908 55.6486 46.362 54.8661 46.258 54.3845L46.2635 54.39Z" fill="#263238"/>
<path d="M45.7987 53.8646C44.9778 53.8154 44.9341 55.4626 45.6947 55.5118C46.4444 55.5556 46.4882 53.9084 45.7987 53.8646Z" fill="#263238"/>
<path d="M49.1373 54.4557C49.1373 54.4557 49.1756 54.483 49.1756 54.4994C49.1482 55.0084 49.1975 55.5994 49.6572 55.78C49.6736 55.7855 49.6681 55.8128 49.6572 55.8074C49.0935 55.7143 49.0333 54.9318 49.1428 54.4502L49.1373 54.4557Z" fill="#263238"/>
<path d="M49.6029 53.9303C50.4238 53.8865 50.4511 55.5392 49.685 55.5775C48.9353 55.6158 48.9134 53.9686 49.6029 53.9303Z" fill="#263238"/>
<path d="M45.1695 53.0931C45.3939 53.0438 45.5963 52.9563 45.8152 52.8851C46.0615 52.803 46.264 52.7593 46.4336 52.5458C46.5212 52.4309 46.4938 52.2175 46.3898 52.1245C46.1491 51.9001 45.8207 51.9275 45.5197 52.015C45.1914 52.108 44.967 52.2667 44.7755 52.5458C44.5894 52.814 44.8795 53.1642 45.175 53.0985L45.1695 53.0931Z" fill="#263238"/>
<path d="M50.2652 53.115C50.0354 53.0712 49.8329 52.9946 49.614 52.9289C49.3623 52.8523 49.1598 52.8195 48.9847 52.6115C48.8916 52.5021 48.9135 52.2886 49.0175 52.1847C49.2528 51.9494 49.5811 51.9658 49.8821 52.0424C50.2105 52.1245 50.4458 52.2722 50.6483 52.5458C50.8453 52.8085 50.5662 53.1642 50.2652 53.1095V53.115Z" fill="#263238"/>
<path d="M45.6064 59.0197C45.7268 59.1401 45.8417 59.3097 46.0278 59.3316C46.2029 59.3535 46.4163 59.2769 46.5805 59.2167C46.5969 59.2112 46.6133 59.2276 46.6024 59.2441C46.4656 59.4356 46.181 59.5505 45.9457 59.5067C45.7159 59.463 45.6064 59.2605 45.5572 59.0471C45.5517 59.0197 45.59 59.0088 45.6064 59.0252V59.0197Z" fill="#263238"/>
<path d="M46.1816 57.5038C46.4553 57.9526 46.8712 58.2098 47.3254 58.3083C47.5279 58.3521 47.7413 58.3685 47.9492 58.3521C47.993 58.3521 48.0313 58.3521 48.0696 58.3411C48.1079 58.3411 48.1408 58.3357 48.1845 58.3247C48.2447 58.3192 48.2776 58.27 48.2885 58.2153C48.2885 58.2153 48.2885 58.177 48.2885 58.1605V58.1113C48.3104 57.7173 48.2885 57.1208 48.2885 57.1208C48.4308 57.1974 49.1532 57.5422 49.1477 57.3397C49.0875 55.6378 49.0218 53.7388 48.6059 52.0588C48.595 52.0041 48.5074 52.015 48.5129 52.0698C48.5074 53.7115 48.7865 55.3422 48.8029 56.9894C48.5731 56.8964 48.1955 56.7213 47.9875 56.7213C47.9328 56.7377 48.0532 57.876 48.0313 58.0566C48.0313 58.0566 48.0313 58.062 48.0313 58.073C47.3692 58.1386 46.8766 57.9307 46.2473 57.471C46.209 57.4382 46.1707 57.471 46.1981 57.5148L46.1816 57.5038Z" fill="#263238"/>
<path d="M47.7255 58.1441C47.7255 58.1441 47.3643 58.6038 46.8827 58.7625C46.7076 58.8227 46.5161 58.8391 46.3191 58.7844C45.9141 58.6695 45.9141 58.2919 45.9962 57.9745C46.0619 57.7118 46.1932 57.4874 46.1932 57.4874C46.1932 57.4874 46.7733 58.062 47.7309 58.1441H47.7255Z" fill="#263238"/>
<path d="M46.8827 58.7625C46.7076 58.8227 46.5161 58.8391 46.3191 58.7844C45.9141 58.6695 45.9141 58.2919 45.9962 57.9745C46.434 58.0292 46.8553 58.3357 46.8827 58.7625Z" fill="#FF97B8"/>
<path d="M49.9021 48.1187C49.6175 47.7903 49.2399 47.7794 48.9718 47.8888C48.4574 48.0968 48.43 48.6988 47.6037 48.9341C46.7007 49.1858 44.9003 47.4401 43.2038 47.9107C41.5074 48.3814 41.0641 50.3952 40.9821 51.9275C40.8945 53.4543 39.9095 55.7582 38.815 55.7855C38.5906 53.1259 38.7712 50.2201 39.4005 48.8684C41.086 45.2511 46.5748 44.4029 49.2618 47.0297C49.4916 47.2486 49.716 47.6699 49.9075 48.1242L49.9021 48.1187Z" fill="#263238"/>
<path d="M40.1277 55.0686C40.1277 55.0686 38.7651 52.4583 37.5995 52.9179C36.4338 53.3722 37.2492 57.0058 38.4586 57.6461C39.6735 58.2864 40.2864 57.1755 40.2864 57.1755L40.1277 55.0741V55.0686Z" fill="#FBB9AF"/>
<path d="M37.856 53.9468C37.856 53.9468 37.8287 53.9687 37.8451 53.9796C38.6933 54.4557 39.0545 55.3477 39.2734 56.2507C39.049 55.884 38.7097 55.6596 38.2282 55.9168C38.2008 55.9333 38.2227 55.9716 38.2446 55.9661C38.6222 55.9333 38.8794 56.0318 39.0873 56.3601C39.2351 56.5899 39.3226 56.869 39.4157 57.1262C39.4485 57.2138 39.5963 57.1864 39.5798 57.0934C39.5798 57.0879 39.5798 57.077 39.5798 57.0715C39.7495 55.9333 39.0709 54.2259 37.8615 53.9522L37.856 53.9468Z" fill="#263238"/>
<path d="M51.6533 49.941C51.6533 49.941 50.4658 42.0662 43.4337 43.0676C36.4017 44.0691 37.4634 51.9658 37.4634 51.9658L51.6533 49.9464V49.941Z" fill="#ED5A25"/>
<path d="M37.0199 52.5921L52.2656 50.4224L52.1068 49.3063L36.8611 51.4761L37.0199 52.5921Z" fill="#ED5A25"/>
<path d="M44.5938 50.3733L47.7678 49.9246L45.9181 42.3015L42.7441 42.7503L44.5938 50.3733Z" fill="#ED5A25"/>
<path opacity="0.1" d="M44.5938 50.3733L47.7678 49.9246L45.9181 42.3015L42.7441 42.7503L44.5938 50.3733Z" fill="black"/>
<path d="M36.9395 64.1748L37.3116 61.3511L45.1098 65.8439L45.3396 68.613L36.9395 64.1748Z" fill="#EBEBEB"/>
<path d="M14.4532 102.011C14.5134 102.109 47.2876 108.824 47.6543 108.551C48.1687 108.162 49.9144 74.8131 44.7649 67.3871C43.4953 65.5593 38.5865 62.9763 36.7752 63.83C32.0798 66.0354 28.6924 71.8416 26.5527 75.2017C24.9712 77.6916 22.8041 82.0312 20.752 86.5186C17.3591 93.9064 14.2453 101.655 14.4532 102.016V102.011Z" fill="#ED5A25"/>
<path d="M41.875 66.4623C37.0921 66.8672 38.2687 80.5264 43.7739 80.0612C49.2737 79.596 46.6578 66.0573 41.875 66.4623Z" fill="#EBEBEB"/>
<path d="M48.2116 101.042C48.2061 101.382 48.1952 101.71 48.1788 102.027L16.7891 95.5755C16.9095 95.28 17.0408 94.9736 17.1667 94.6671L48.2116 101.042Z" fill="white"/>
<path d="M48.1359 103.029C48.1195 103.368 48.1031 103.697 48.0812 104.009L16.0293 97.4307C16.1442 97.1407 16.2701 96.8288 16.4014 96.5168L48.1304 103.029H48.1359Z" fill="white"/>
<path d="M42.2307 74.9445C46.5485 82.5894 55.2824 96.4729 61.4608 97.3704C68.0112 98.3226 77.2213 91.794 81.1122 89.8513C82.7648 89.025 74.6055 78.31 72.6792 78.7423C70.7857 79.1692 64.7442 83.5799 63.2721 83.6292C61.8001 83.6784 53.2303 74.8788 47.1997 70.1342C40.1074 64.5579 38.7284 68.7333 42.2307 74.9445Z" fill="#FBB9AF"/>
<path d="M75.4432 65.1872C75.4432 65.1872 72.8438 62.8559 71.3936 64.7548C69.9489 66.6538 72.8876 68.5363 72.8876 68.5363L75.4377 65.1872H75.4432Z" fill="#455A64"/>
<path d="M92.3357 83.3173L95.7067 83.8919L96.8176 84.0889L96.3415 83.0656L94.8858 79.9737H94.8804L75.3275 65.1161L72.7773 68.4652L92.3302 83.3228L92.3357 83.3173Z" fill="#455A64"/>
<path d="M95.707 83.8919L96.8179 84.0834L96.3418 83.0601L95.707 83.8919Z" fill="#37474F"/>
<path d="M73.238 69.2477L76.2205 65.3349L75.4434 64.7439L72.4609 68.6567L73.238 69.2477Z" fill="#37474F"/>
<path d="M74.0974 69.899L77.0799 65.9917L76.3028 65.4006L73.3203 69.3079L74.0974 69.899Z" fill="#37474F"/>
<path d="M77.0803 65.9916L76.1172 67.2502L83.7238 71.9291L84.0522 71.4476L77.0803 65.9916Z" fill="#37474F"/>
<path d="M85.675 68.1039C86.9884 68.8372 86.671 70.3695 86.671 70.3695C86.671 70.3695 87.8695 70.2765 88.7615 71.0152C89.7793 71.8635 88.8983 73.828 88.8983 73.828C88.8983 73.828 90.1296 73.9867 90.9942 74.8623C91.8862 75.7707 91.2788 77.8831 91.2788 77.8831C91.2788 77.8831 92.3459 78.6602 92.5484 79.9517C92.8931 82.157 90.3102 84.3843 88.6849 85.8181C87.0595 87.2519 81.1056 89.7965 80.022 90.393L70.418 79.8203C70.418 79.8203 74.0133 73.0564 78.3475 70.1287C80.1424 68.9138 84.2084 67.283 85.6805 68.1094L85.675 68.1039Z" fill="#FBB9AF"/>
<path d="M86.4519 70.2654C84.2246 71.0699 82.353 72.4872 80.4049 73.8006C80.3611 73.828 80.4049 73.8991 80.4486 73.8663C82.3694 72.542 84.5311 71.6116 86.5011 70.3639C86.5558 70.3311 86.5121 70.2435 86.4519 70.2654Z" fill="#263238"/>
<path d="M88.7392 73.7185C88.2412 73.9156 87.8089 74.2767 87.3821 74.5941C86.9224 74.9389 86.4736 75.2891 86.0249 75.6448C85.1274 76.3617 84.2519 77.1005 83.3927 77.8612C83.3544 77.894 83.3927 77.9597 83.4365 77.9268C84.3285 77.2154 85.2314 76.5149 86.1563 75.8418C86.6159 75.5025 87.0811 75.1687 87.5462 74.8404C87.9786 74.5339 88.4656 74.2439 88.8213 73.8444C88.876 73.7842 88.8104 73.6857 88.7337 73.7131L88.7392 73.7185Z" fill="#263238"/>
<path d="M91.2343 77.9104C90.7965 78.0637 90.4079 78.4686 90.0522 78.7641C89.6527 79.0979 89.2478 79.4318 88.8428 79.7601C88.0329 80.4223 87.223 81.079 86.3912 81.7138C86.3474 81.7466 86.3912 81.8123 86.435 81.7794C87.2832 81.1391 88.1424 80.5153 88.9851 79.8695C89.401 79.5521 89.8114 79.2347 90.2219 78.9119C90.5721 78.6383 91.0373 78.3373 91.2671 77.9433C91.278 77.9214 91.2562 77.894 91.2343 77.905V77.9104Z" fill="#263238"/>
<path d="M69.7727 79.7219L77.7077 93.7477C77.7077 93.7477 65.5261 100.227 59.2985 97.458C53.0709 94.6889 44.0907 80.3239 41.2505 73.85C38.4104 67.3762 41.36 65.1489 46.9801 69.6472C52.6003 74.1455 62.5272 82.8083 62.9267 82.9944C63.3262 83.1805 69.7672 79.7274 69.7672 79.7274L69.7727 79.7219Z" fill="#EBEBEB"/>
<path d="M70.604 87.8922C70.0677 86.8798 69.5095 85.8784 68.9568 84.8769C68.6887 84.3954 68.426 83.9138 68.1414 83.4432C67.835 82.9342 67.5668 82.3925 67.2221 81.9054C67.2002 81.8726 67.1509 81.8945 67.1674 81.9328C67.3753 82.4855 67.6763 83.0163 67.9225 83.5526C68.1524 84.0506 68.4041 84.5431 68.6504 85.0302C69.1648 86.0535 69.6792 87.0768 70.221 88.0892C71.299 90.114 72.4318 92.1005 73.592 94.0815C73.6193 94.1308 73.6905 94.0925 73.6686 94.0432C72.6835 91.9746 71.6766 89.9225 70.604 87.8922Z" fill="#263238"/>
<path d="M48.156 85.7415C47.554 84.9152 47.0725 83.9684 46.569 83.0819C46.0655 82.2063 45.5676 81.3253 45.0586 80.4497C44.0353 78.6821 43.0338 76.909 42.016 75.1414C42.005 75.125 41.9777 75.1414 41.9831 75.1579C42.4592 76.2906 42.9846 77.3961 43.5428 78.4851C43.4935 78.4194 43.4443 78.3483 43.3895 78.2826C43.0667 77.8722 42.7274 77.4727 42.3881 77.0677C42.3662 77.0458 42.3279 77.0787 42.3443 77.1006C42.6508 77.5384 42.9518 77.9816 43.2746 78.4085C43.4771 78.6766 43.696 78.9393 43.9149 79.1965C44.1666 79.6671 44.4238 80.1377 44.692 80.5974C45.2064 81.4894 45.7536 82.3705 46.3282 83.2242C46.9028 84.0779 47.554 84.8987 48.0849 85.7743C48.1122 85.8236 48.1888 85.7743 48.156 85.7305V85.7415Z" fill="#263238"/>
</g>
<defs>
<clipPath id="clip0_325_8055">
<rect width="233.847" height="228.44" fill="white"/>
</clipPath>
</defs>
</svg>
