<svg width="429" height="421" viewBox="0 0 429 421" fill="none" xmlns="http://www.w3.org/2000/svg">
<rect x="-1" width="430" height="421" fill="#FFF4F1"/>
<mask id="mask0_386_17100" style="mask-type:alpha" maskUnits="userSpaceOnUse" x="-1" y="0" width="430" height="421">
<rect x="-1" width="430" height="421" fill="#FFF4F1"/>
</mask>
<g mask="url(#mask0_386_17100)">
<path fill-rule="evenodd" clip-rule="evenodd" d="M-74.3702 539.931C93.0767 545.364 225.756 426.45 221.976 274.33C218.197 122.209 79.391 -5.51213 -88.0559 -10.9445C-255.503 -16.3769 -388.182 102.537 -384.402 254.657C-380.623 406.777 -241.817 534.499 -74.3702 539.931ZM-251.491 373.723C-208.181 471.793 -87.4918 523.97 18.0758 490.262C123.643 456.554 174.113 349.727 130.803 251.657C87.4924 153.586 -33.1969 101.41 -138.764 135.117C-244.332 168.825 -294.801 275.652 -251.491 373.723Z" fill="url(#paint0_linear_386_17100)"/>
<path fill-rule="evenodd" clip-rule="evenodd" d="M294.774 193.838C313.274 265.282 405.819 305.751 501.48 284.229C597.141 262.706 659.692 187.343 641.192 115.899C622.693 44.4558 530.148 3.98664 434.487 25.5088C338.826 47.031 276.275 122.395 294.774 193.838ZM376.635 97.2487C320.317 128.39 303.145 186.205 338.28 226.383C373.414 266.561 447.551 273.887 503.869 242.746C560.187 211.605 577.359 153.79 542.224 113.612C507.089 73.4339 432.952 66.1079 376.635 97.2487Z" fill="url(#paint1_linear_386_17100)"/>
</g>
<defs>
<linearGradient id="paint0_linear_386_17100" x1="155.223" y1="503.346" x2="-357.055" y2="414.952" gradientUnits="userSpaceOnUse">
<stop stop-color="#FFEDE8"/>
<stop offset="1" stop-color="#FFD9CB"/>
</linearGradient>
<linearGradient id="paint1_linear_386_17100" x1="347.974" y1="286.029" x2="327.814" y2="58.85" gradientUnits="userSpaceOnUse">
<stop stop-color="#FFEDE8"/>
<stop offset="1" stop-color="#FFD9CB"/>
</linearGradient>
</defs>
</svg>
